<svg width="44" height="44" viewBox="0 0 44 44" fill="none" xmlns="http://www.w3.org/2000/svg">
<path d="M17.8446 5.01287H21.1336C21.3052 5.01287 21.4698 4.9447 21.5911 4.82335C21.7125 4.702 21.7806 4.53742 21.7806 4.36581C21.7806 4.1942 21.7125 4.02962 21.5911 3.90827C21.4698 3.78692 21.3052 3.71875 21.1336 3.71875H17.8446C17.673 3.71875 17.5084 3.78692 17.387 3.90827C17.2657 4.02962 17.1975 4.1942 17.1975 4.36581C17.1975 4.53742 17.2657 4.702 17.387 4.82335C17.5084 4.9447 17.673 5.01287 17.8446 5.01287ZM14.9115 39.8479H20.7777C20.9493 39.8479 21.1139 39.7798 21.2352 39.6584C21.3566 39.5371 21.4248 39.3725 21.4248 39.2009C21.4248 39.0293 21.3566 38.8647 21.2352 38.7433C21.1139 38.622 20.9493 38.5538 20.7777 38.5538H14.9115C14.7399 38.5538 14.5753 38.622 14.4539 38.7433C14.3326 38.8647 14.2644 39.0293 14.2644 39.2009C14.2644 39.3725 14.3326 39.5371 14.4539 39.6584C14.5753 39.7798 14.7399 39.8479 14.9115 39.8479Z" fill="#8745FF"/>
<path d="M6.57089 33.4101C6.7425 33.4101 6.90708 33.3419 7.02843 33.2205C7.14977 33.0992 7.21795 32.9346 7.21795 32.763V7.441H28.4706V10.7695C28.4706 10.9411 28.5388 11.1057 28.6601 11.227C28.7815 11.3484 28.946 11.4165 29.1177 11.4165C29.2893 11.4165 29.4538 11.3484 29.5752 11.227C29.6965 11.1057 29.7647 10.9411 29.7647 10.7695L29.7673 3.86924C29.7673 2.45218 28.6091 1.29395 27.1875 1.29395H8.49912C7.14677 1.29395 5.92383 2.40689 5.92383 3.87118V32.763C5.92383 32.9346 5.992 33.0992 6.11335 33.2205C6.23469 33.3419 6.39928 33.4101 6.57089 33.4101ZM27.1862 2.58806C27.8701 2.58806 28.4712 3.14777 28.4712 3.87118V6.14689H7.21795V3.86924C7.21795 3.16395 7.79642 2.58806 8.50106 2.58806H27.1862Z" fill="#8745FF"/>
<path d="M21.8375 17.5975C21.9595 17.7182 22.1244 17.7855 22.2959 17.7847C22.4675 17.7838 22.6317 17.7149 22.7525 17.593L25.4572 14.8637C25.5771 14.7425 25.6444 14.5789 25.6444 14.4085C25.6444 14.238 25.5771 14.0744 25.4572 13.9533L22.7525 11.224C22.6305 11.1083 22.4683 11.0447 22.3002 11.0466C22.1321 11.0485 21.9713 11.1157 21.8519 11.234C21.7325 11.3523 21.6639 11.5124 21.6604 11.6805C21.657 11.8485 21.7191 12.0113 21.8336 12.1344L24.0861 14.4088L21.833 16.6826C21.7123 16.8045 21.645 16.9694 21.6458 17.141C21.6467 17.3125 21.7156 17.4768 21.8375 17.5975ZM13.8509 11.2194C13.7906 11.1595 13.7191 11.1121 13.6404 11.0799C13.5617 11.0477 13.4775 11.0313 13.3925 11.0317C13.3075 11.0321 13.2234 11.0493 13.145 11.0823C13.0667 11.1153 12.9956 11.1635 12.9359 11.224L10.2319 13.9533C10.1119 14.0744 10.0447 14.238 10.0447 14.4085C10.0447 14.5789 10.1119 14.7425 10.2319 14.8637L12.9366 17.593C12.9956 17.6564 13.0668 17.7074 13.1459 17.7428C13.2251 17.7782 13.3105 17.7974 13.3972 17.7991C13.4838 17.8009 13.57 17.7852 13.6505 17.7531C13.731 17.7209 13.8042 17.6729 13.8657 17.6119C13.9273 17.5508 13.976 17.4781 14.0089 17.3979C14.0418 17.3177 14.0583 17.2317 14.0573 17.145C14.0564 17.0583 14.038 16.9727 14.0033 16.8933C13.9686 16.8139 13.9183 16.7422 13.8554 16.6826L11.603 14.4088L13.8554 12.1344C13.9761 12.0124 14.0434 11.8476 14.0426 11.676C14.0417 11.5044 13.9728 11.3402 13.8509 11.2194ZM18.8876 9.39085L15.0893 18.9479C15.0579 19.0269 15.0424 19.1113 15.0436 19.1963C15.0448 19.2813 15.0628 19.3652 15.0964 19.4432C15.1301 19.5213 15.1788 19.5919 15.2397 19.6512C15.3007 19.7104 15.3727 19.757 15.4517 19.7884C15.5307 19.8198 15.6151 19.8354 15.7001 19.8342C15.785 19.8329 15.869 19.815 15.947 19.7813C16.0251 19.7477 16.0957 19.699 16.155 19.6381C16.2142 19.5771 16.2608 19.5051 16.2922 19.4261L20.0905 9.86903C20.1539 9.70943 20.1513 9.53118 20.0833 9.37349C20.0153 9.2158 19.8874 9.09159 19.7278 9.02818C19.5682 8.96477 19.3899 8.96736 19.2322 9.03537C19.0746 9.10339 18.9503 9.23126 18.8869 9.39085H18.8876ZM29.1208 21.3789C27.2249 21.3789 25.6849 22.9189 25.6849 24.8148C25.6849 26.7288 27.2456 28.2507 29.1208 28.2507C30.9882 28.2507 32.5502 26.7314 32.5502 24.8148C32.5502 22.9189 31.0102 21.3789 29.1208 21.3789ZM29.7679 26.853V24.3877C29.7679 24.0319 29.4767 23.7407 29.1208 23.7407C28.7585 23.7407 28.4738 24.0319 28.4738 24.3877V26.8595C27.9874 26.7037 27.5726 26.3794 27.304 25.945C27.0354 25.5106 26.9307 24.9946 27.0087 24.4898C27.0868 23.9851 27.3424 23.5248 27.7295 23.1917C28.1167 22.8587 28.6101 22.6747 29.1208 22.673C30.2985 22.673 31.2561 23.6371 31.2561 24.8148C31.2561 25.7724 30.6285 26.5813 29.7679 26.853Z" fill="#8745FF"/>
<path d="M37.5003 22.77L35.9085 22.5888C35.7856 22.2135 35.6303 21.8447 35.4427 21.4888L36.3744 20.1688C36.5621 19.9164 36.5297 19.5606 36.3097 19.3406L34.4527 17.49C34.3409 17.3766 34.1912 17.3086 34.0323 17.299C33.8734 17.2894 33.7166 17.339 33.5921 17.4382L32.3432 18.4411C31.9874 18.26 31.6185 18.1111 31.2368 17.9947L30.9715 16.3964C30.9455 16.2456 30.8668 16.1089 30.7495 16.0106C30.6323 15.9123 30.4839 15.8587 30.3309 15.8594H27.7103C27.3803 15.8594 27.1021 16.1053 27.0632 16.4353L26.8885 18.0335C26.5068 18.1564 26.1444 18.3117 25.795 18.4929L24.4685 17.5547C24.3447 17.4659 24.1931 17.4242 24.0413 17.4373C23.8894 17.4503 23.7472 17.5172 23.6403 17.6259L21.7897 19.4764C21.5568 19.7094 21.5374 20.0782 21.7444 20.337L22.7409 21.5923C22.5597 21.9482 22.4109 22.317 22.2944 22.6988L20.7027 22.9641C20.3921 23.0223 20.1591 23.2876 20.1591 23.6047V26.2253C20.1591 26.5553 20.4115 26.827 20.735 26.8659L22.3268 27.047C22.4497 27.4288 22.6115 27.7976 22.7927 28.147L21.8609 29.4606C21.6797 29.7194 21.7056 30.0688 21.9321 30.2953L23.7827 32.1459C24.0156 32.3788 24.3844 32.3982 24.6432 32.1911L25.8985 31.1947C26.2544 31.3694 26.6168 31.5182 26.9985 31.6347L27.2638 33.2329C27.2885 33.3849 27.3665 33.5231 27.4839 33.6228C27.6013 33.7224 27.7504 33.7769 27.9044 33.7764H28.4738V35.2064H6.57089C6.215 35.2064 5.92383 35.4976 5.92383 35.8535V40.1306C5.92554 40.813 6.19741 41.4671 6.68 41.9497C7.16259 42.4323 7.81664 42.7041 8.49912 42.7059H27.1862C28.6097 42.7059 29.7679 41.5476 29.7679 40.1306V33.7764H30.525C30.855 33.7764 31.1332 33.5306 31.1721 33.2006L31.3532 31.6023C31.7295 31.4788 32.0952 31.3252 32.4468 31.1429L33.7668 32.0811C34.0256 32.2623 34.375 32.23 34.6015 32.01L36.4456 30.1529C36.6785 29.92 36.6979 29.5511 36.4909 29.2988L35.4944 28.0435C35.6756 27.6811 35.8244 27.3123 35.9409 26.937L37.5327 26.6653C37.8432 26.6135 38.0762 26.3417 38.0762 26.0311V23.4106C38.0762 23.0806 37.8303 22.8023 37.5003 22.77ZM28.4738 40.1306C28.4738 40.8359 27.8979 41.4117 27.1862 41.4117H8.49912C7.79383 41.4117 7.21795 40.8359 7.21795 40.1306V36.5006H28.4738V40.1306ZM36.7821 25.4811L35.3197 25.727C35.0609 25.7723 34.8603 25.96 34.7956 26.2188C34.6662 26.7623 34.4527 27.2864 34.1679 27.7847C34.0321 28.0111 34.0515 28.3023 34.2197 28.5094L35.1191 29.6482L34.0709 30.7094L32.8544 29.8423C32.7507 29.7698 32.628 29.7294 32.5014 29.7259C32.3749 29.7225 32.2502 29.7562 32.1427 29.8229C31.6703 30.1141 31.1527 30.3341 30.6027 30.47C30.3374 30.5347 30.1432 30.7611 30.1109 31.0264L29.9491 32.4823H28.4479L28.2021 31.0135C28.1818 30.8887 28.1249 30.7728 28.0384 30.6806C27.952 30.5884 27.84 30.5241 27.7168 30.4959C27.1732 30.36 26.6491 30.1464 26.1638 29.8617C26.0512 29.795 25.9208 29.7642 25.7902 29.7734C25.6595 29.7827 25.5348 29.8315 25.4327 29.9135L24.2874 30.8194L23.2327 29.7647L24.0868 28.5676C24.2246 28.3729 24.2485 28.0849 24.1127 27.8429C23.8215 27.3706 23.595 26.8464 23.4527 26.29C23.4214 26.1633 23.3518 26.0493 23.2534 25.9636C23.1549 25.8779 23.0325 25.8247 22.9027 25.8111L21.4532 25.6429V24.1547L22.9156 23.9088C23.1744 23.8635 23.3815 23.6694 23.4397 23.417C23.5691 22.867 23.7827 22.3429 24.0738 21.8641C24.2097 21.6311 24.1968 21.34 24.0285 21.1264L23.1162 19.9811L24.1709 18.9264L25.3809 19.787C25.484 19.8605 25.6064 19.9021 25.7329 19.9067C25.8594 19.9113 25.9845 19.8787 26.0927 19.8129C26.565 19.5217 27.0891 19.3017 27.6456 19.1594C27.9044 19.0947 28.0921 18.8747 28.1244 18.6094L28.2862 17.1535H29.7874L30.0332 18.6159C30.0785 18.8747 30.2662 19.0817 30.5185 19.14C31.0685 19.2694 31.5927 19.4829 32.0779 19.7741C32.3109 19.91 32.6021 19.8906 32.8091 19.7223L33.9479 18.81L35.0027 19.8711L34.1485 21.0747C34.0127 21.2669 33.9848 21.5477 34.1227 21.7929C34.4203 22.2782 34.6403 22.8023 34.7762 23.3394C34.8409 23.5982 35.0609 23.7923 35.3327 23.8247L36.7821 23.9864V25.4811Z" fill="#8745FF"/>
</svg>
