<svg width="44" height="44" viewBox="0 0 44 44" fill="none" xmlns="http://www.w3.org/2000/svg">
<path d="M39.5278 32.3559C39.5753 32.3005 39.612 32.2367 39.6361 32.1679C41.4252 29.0779 42.3672 25.5706 42.3672 22.0001C42.3672 18.4296 41.4252 14.9223 39.6361 11.8323C39.612 11.7635 39.5753 11.6997 39.5278 11.6443C36.882 7.18237 32.6396 3.89251 27.6595 2.4407C27.6088 2.4176 27.5551 2.40174 27.5 2.39361C23.9035 1.37921 20.0965 1.37921 16.5 2.39361C16.4458 2.4013 16.3928 2.41634 16.3426 2.43829C11.3612 3.89001 7.1179 7.18089 4.47221 11.6443C4.42478 11.6997 4.38807 11.7635 4.36393 11.8323C2.57489 14.9223 1.63281 18.4296 1.63281 22.0001C1.63281 25.5706 2.57489 29.0779 4.36393 32.1679C4.38807 32.2367 4.42478 32.3005 4.47221 32.3559C7.11589 36.8159 11.3548 40.1053 16.3316 41.5588C16.3842 41.5822 16.4399 41.5981 16.4969 41.6059C20.0945 42.6208 23.9028 42.6208 27.5004 41.6059C27.5604 41.5983 27.6189 41.5817 27.674 41.5567C32.6482 40.1023 36.8849 36.8139 39.5278 32.3559ZM22.6016 41.149V32.5704H30.8217C29.9279 35.8394 28.642 38.5558 27.0779 40.4766C25.6177 40.8775 24.1151 41.1032 22.6016 41.149ZM16.9221 40.4759C15.3581 38.5558 14.0721 35.8398 13.1784 32.5697H21.3985V41.1483C19.885 41.1025 18.3823 40.8768 16.9221 40.4759ZM2.85108 22.601H5.50002V27.3282C5.50011 27.4877 5.56352 27.6407 5.67631 27.7535C5.78911 27.8663 5.94207 27.9297 6.10158 27.9298H11.0224C11.1819 29.1064 11.3888 30.2569 11.6411 31.3673H5.29033C3.78046 28.6856 2.94346 25.6778 2.85108 22.6016V22.601ZM5.29171 12.6322H11.6415C11.3843 13.7683 11.1778 14.9152 11.0227 16.0697H6.10158C6.02254 16.0697 5.94428 16.0854 5.87127 16.1156C5.79826 16.1459 5.73193 16.1903 5.67607 16.2462C5.62021 16.3022 5.57591 16.3685 5.54571 16.4416C5.5155 16.5146 5.49997 16.5929 5.50002 16.6719V21.3985H2.85108C2.94346 18.3224 3.78046 15.3146 5.29033 12.6329L5.29171 12.6322ZM21.3985 2.85114V11.4298H13.1784C14.0721 8.1607 15.3581 5.44439 16.9221 3.52351C18.3823 3.12268 19.885 2.89697 21.3985 2.85114ZM27.0779 3.5242C28.642 5.44439 29.9279 8.16036 30.8217 11.4304H22.6016V2.85114C24.1151 2.89719 25.6178 3.12313 27.0779 3.5242ZM41.149 21.3992H38.5V16.6719C38.4999 16.5124 38.4365 16.3595 38.3237 16.2467C38.2109 16.1339 38.058 16.0705 37.8985 16.0704H32.9777C32.8223 14.916 32.6158 13.769 32.3589 12.6329H38.7097C40.2196 15.3146 41.0566 18.3224 41.149 21.3985V21.3992ZM38.7083 31.3679H32.3586C32.6112 30.2576 32.8182 29.1068 32.9773 27.9304H37.8985C37.9775 27.9304 38.0558 27.9148 38.1288 27.8845C38.2018 27.8542 38.2681 27.8098 38.324 27.7539C38.3798 27.698 38.4241 27.6316 38.4543 27.5586C38.4845 27.4855 38.5001 27.4072 38.5 27.3282V22.6016H41.149C41.0566 25.6778 40.2196 28.6856 38.7097 31.3673L38.7083 31.3679ZM22.6002 31.3679V27.9304H31.7625C31.6028 29.0856 31.3892 30.2327 31.1225 31.3679H22.6002ZM6.70314 26.7266V17.2735H37.2969V26.7266H6.70314ZM31.7625 16.0704H22.6016V12.6329H31.1235C31.3898 13.7682 31.603 14.9153 31.7625 16.0704ZM21.3974 12.6329V16.0704H12.2375C12.3972 14.9152 12.6108 13.7681 12.8776 12.6329H21.3974ZM12.2375 27.9298H21.3985V31.3673H12.8766C12.6103 30.232 12.3971 29.0849 12.2375 27.9298ZM29.0318 39.8235C30.4128 37.5775 31.4368 35.1306 32.0671 32.5704H37.9758C35.8031 35.843 32.682 38.3733 29.0307 39.8221L29.0318 39.8235ZM37.9758 11.4298H32.0661C31.4354 8.86964 30.4115 6.42284 29.0307 4.17664C32.6817 5.62621 35.8024 8.15695 37.9748 11.4298H37.9758ZM14.9703 4.17664C13.5895 6.4228 12.5655 8.86961 11.935 11.4298H6.02527C8.19769 8.15722 11.3184 5.62683 14.9693 4.17767L14.9703 4.17664ZM6.02527 32.5704H11.934C12.5642 35.1306 13.5881 37.5774 14.969 39.8235C11.3182 38.3739 8.19756 35.8431 6.02527 32.5704Z" fill="#8745FF"/>
<path d="M15.74 23.0959L14.5444 19.4648H13.5407L12.3379 23.0959L11.253 19.4648H10.2417L11.8508 24.5352H12.7659L14.0425 20.7714L15.312 24.5352H16.2346L17.8358 19.4648H16.8249L15.74 23.0959ZM23.2733 24.5352H24.1955L25.7971 19.4648H24.7858L23.7012 23.0959L22.5057 19.4648H21.5019L20.2988 23.0959L19.2143 19.4648H18.2029L19.8117 24.5352H20.7271L22.0038 20.7714L23.2733 24.5352ZM28.6884 24.5352L29.9647 20.7714L31.2342 24.5352H32.1568L33.7583 19.4648H32.747L31.6621 23.0959L30.4666 19.4648H29.4628L28.26 23.0959L27.1752 19.4648H26.1642L27.7729 24.5352H28.6884Z" fill="#8745FF"/>
</svg>
