<svg width="36" height="36" viewBox="0 0 36 36" fill="none" xmlns="http://www.w3.org/2000/svg">
<path d="M32.3409 26.473C32.3798 26.4277 32.4098 26.3755 32.4295 26.3192C33.8933 23.791 34.6641 20.9214 34.6641 18.0001C34.6641 15.0788 33.8933 12.2092 32.4295 9.68098C32.4098 9.62468 32.3798 9.57248 32.3409 9.52716C30.1762 5.87649 26.7051 3.18478 22.6305 1.99694C22.589 1.97804 22.5451 1.96506 22.5 1.95841C19.5574 1.12845 16.4426 1.12845 13.5 1.95841C13.4557 1.9647 13.4123 1.97701 13.3712 1.99497C9.29553 3.18274 5.82374 5.87528 3.65908 9.52716C3.62028 9.57248 3.59024 9.62468 3.57049 9.68098C2.10673 12.2092 1.33594 15.0788 1.33594 18.0001C1.33594 20.9214 2.10673 23.791 3.57049 26.3192C3.59024 26.3755 3.62028 26.4277 3.65908 26.473C5.82209 30.1221 9.29029 32.8134 13.3622 34.0027C13.4053 34.0218 13.4508 34.0348 13.4975 34.0412C16.441 34.8716 19.5568 34.8716 22.5003 34.0412C22.5494 34.035 22.5973 34.0214 22.6424 34.0009C26.7122 32.811 30.1786 30.1205 32.3409 26.473ZM18.4922 33.6674V26.6485H25.2178C24.4865 29.3231 23.4344 31.5457 22.1546 33.1172C20.9599 33.4452 19.7305 33.6299 18.4922 33.6674ZM13.8454 33.1166C12.5657 31.5457 11.5135 29.3235 10.7823 26.6479H17.5079V33.6668C16.2695 33.6293 15.0401 33.4447 13.8454 33.1166ZM2.3327 18.4917H4.50002V22.3594C4.50009 22.4899 4.55197 22.6151 4.64426 22.7074C4.73655 22.7997 4.8617 22.8516 4.9922 22.8517H9.01833C9.14883 23.8143 9.31811 24.7556 9.52454 25.6642H4.32845C3.09311 23.47 2.40829 21.0086 2.3327 18.4917ZM4.32958 10.3354H9.52487C9.31443 11.265 9.14548 12.2033 9.01858 13.1479H4.9922C4.92753 13.1479 4.8635 13.1608 4.80377 13.1855C4.74403 13.2103 4.68976 13.2466 4.64406 13.2923C4.59836 13.3382 4.56211 13.3924 4.5374 13.4522C4.51268 13.5119 4.49998 13.576 4.50002 13.6406V17.5079H2.3327C2.40829 14.9911 3.09311 12.5301 4.32845 10.336L4.32958 10.3354ZM17.5079 2.33275V9.35166H10.7823C11.5135 6.67694 12.5657 4.4545 13.8454 2.88287C15.0401 2.55492 16.2695 2.37025 17.5079 2.33275ZM22.1546 2.88344C23.4344 4.4545 24.4865 6.67666 25.2178 9.35215H18.4922V2.33275C19.7305 2.37043 20.96 2.55529 22.1546 2.88344ZM33.6674 17.5084H31.5V13.6406C31.4999 13.5101 31.448 13.385 31.3558 13.2928C31.2635 13.2005 31.1384 13.1486 31.0079 13.1485H26.9818C26.8546 12.204 26.6857 11.2655 26.4755 10.336H31.6716C32.9069 12.5301 33.5918 14.9916 33.6674 17.5084ZM31.6704 25.6646H26.4752C26.6819 24.7562 26.8513 23.8147 26.9814 22.8521H31.0079C31.0725 22.8521 31.1366 22.8394 31.1963 22.8146C31.256 22.7898 31.3103 22.7535 31.356 22.7077C31.4017 22.662 31.4379 22.6077 31.4626 22.5479C31.4873 22.4881 31.5001 22.4241 31.5 22.3594V18.4922H33.6674C33.5918 21.0091 32.9069 23.47 31.6716 25.6642L31.6704 25.6646ZM18.4911 25.6646V22.8521H25.9875C25.8568 23.7973 25.6821 24.7358 25.4639 25.6646H18.4911ZM5.48439 21.8672V14.1329H30.5156V21.8672H5.48439ZM25.9875 13.1485H18.4922V10.336H25.4647C25.6826 11.2649 25.857 12.2034 25.9875 13.1485ZM17.507 10.336V13.1485H10.0125C10.1432 12.2033 10.3179 11.2648 10.5362 10.336H17.507ZM10.0125 22.8517H17.5079V25.6642H10.5354C10.3175 24.7353 10.1431 23.7967 10.0125 22.8517ZM23.7533 32.5829C24.8832 30.7452 25.721 28.7432 26.2367 26.6485H31.0711C29.2934 29.3261 26.7398 31.3963 23.7524 32.5817L23.7533 32.5829ZM31.0711 9.35166H26.2359C25.7199 7.25698 24.8821 5.25505 23.7524 3.41725C26.7396 4.60326 29.2937 6.67387 31.0711 9.35166ZM12.2484 3.41725C11.1187 5.25502 10.2809 7.25696 9.765 9.35166H4.92977C6.7072 6.67409 9.26051 4.60377 12.2476 3.4181L12.2484 3.41725ZM4.92977 26.6485H9.76418C10.2798 28.7432 11.1175 30.7451 12.2474 32.5829C9.26035 31.3968 6.7071 29.3262 4.92977 26.6485Z" fill="#8745FF"/>
<path d="M12.878 18.8967L11.8998 15.9258H11.0786L10.0945 18.8967L9.20682 15.9258H8.37939L9.69593 20.0743H10.4446L11.4891 16.9948L12.5278 20.0743H13.2827L14.5927 15.9258H13.7656L12.878 18.8967ZM19.0416 20.0743H19.7961L21.1065 15.9258H20.2791L19.3917 18.8967L18.4136 15.9258H17.5923L16.6079 18.8967L15.7206 15.9258H14.8931L16.2094 20.0743H16.9584L18.0029 16.9948L19.0416 20.0743ZM23.4721 20.0743L24.5164 16.9948L25.5551 20.0743H26.3099L27.6203 15.9258H26.7928L25.9052 18.8967L24.927 15.9258H24.1057L23.1216 18.8967L22.2341 15.9258H21.4069L22.7231 20.0743H23.4721Z" fill="#8745FF"/>
</svg>
