<svg width="20" height="20" viewBox="0 0 20 20" fill="none" xmlns="http://www.w3.org/2000/svg">
<g clip-path="url(#clip0_38_2589)">
<path d="M15.0002 0H5.00043C2.25074 0 0.000549316 2.25019 0.000549316 4.99988V15.0001C0.000549316 17.7491 2.25074 20 5.00043 20H15.0002C17.7499 20 20.0001 17.7491 20.0001 15.0001V4.99988C20.0001 2.25019 17.7499 0 15.0002 0ZM18.3334 15.0001C18.3334 16.8376 16.8387 18.3333 15.0002 18.3333H5.00043C3.16273 18.3333 1.66726 16.8376 1.66726 15.0001V4.99988C1.66726 3.16193 3.16273 1.66671 5.00043 1.66671H15.0002C16.8387 1.66671 18.3334 3.16193 18.3334 4.99988V15.0001Z" fill="#8B8D9C"/>
<path d="M15.4174 5.83295C16.1077 5.83295 16.6674 5.27332 16.6674 4.58298C16.6674 3.89264 16.1077 3.33301 15.4174 3.33301C14.7271 3.33301 14.1674 3.89264 14.1674 4.58298C14.1674 5.27332 14.7271 5.83295 15.4174 5.83295Z" fill="#8B8D9C"/>
<path d="M10 5C7.23806 5 5.00012 7.23818 5.00012 9.99988C5.00012 12.7606 7.23806 15.0002 10 15.0002C12.7612 15.0002 14.9999 12.7606 14.9999 9.99988C14.9999 7.23818 12.7612 5 10 5ZM10 13.3335C8.15927 13.3335 6.66683 11.8411 6.66683 9.99988C6.66683 8.15866 8.15927 6.66671 10 6.66671C11.8407 6.66671 13.3332 8.15866 13.3332 9.99988C13.3332 11.8411 11.8407 13.3335 10 13.3335Z" fill="#8B8D9C"/>
</g>
<defs>
<clipPath id="clip0_38_2589">
<rect width="20" height="20" fill="white"/>
</clipPath>
</defs>
</svg>
