<svg width="434" height="385" viewBox="0 0 434 385" fill="none" xmlns="http://www.w3.org/2000/svg">
<g clip-path="url(#clip0_72_29)">
<path d="M0.000222989 0.266787C0.932983 -0.133421 2.13225 0.133392 2.66525 1.06721C3.19826 2.00103 2.93179 3.33502 1.86578 3.86863C1.19952 4.26884 0.533229 4.26885 0.000222945 4.00204L0.000222989 0.266787Z" fill="white" fill-opacity="0.16"/>
<path d="M3.90275e-05 0.266706C0.533045 -9.94446e-05 1.33259 -9.13047e-05 1.86559 0.400117C2.79835 0.933727 3.19807 2.26772 2.66507 3.20154C2.13206 4.13536 0.932799 4.53557 3.89829e-05 4.00196L3.90275e-05 0.266706Z" fill="white" fill-opacity="0.16"/>
<path d="M0.000222989 109.123C0.932983 108.723 2.13225 108.99 2.66525 109.924C3.19826 110.857 2.93179 112.191 1.86578 112.725C1.19952 113.125 0.533229 113.125 0.000222945 112.858L0.000222989 109.123Z" fill="white" fill-opacity="0.16"/>
<path d="M3.90275e-05 109.123C0.533045 108.856 1.33259 108.856 1.86559 109.257C2.79835 109.79 3.19807 111.124 2.66507 112.058C2.13206 112.992 0.932799 113.392 3.89829e-05 112.858L3.90275e-05 109.123Z" fill="white" fill-opacity="0.16"/>
<path d="M0.000222989 217.846C0.932983 217.446 2.13225 217.713 2.66525 218.647C3.19826 219.581 2.93179 220.915 1.86578 221.448C1.19952 221.848 0.533229 221.848 0.000222945 221.582L0.000222989 217.846Z" fill="white" fill-opacity="0.16"/>
<path d="M3.90275e-05 217.847C0.533045 217.58 1.33259 217.58 1.86559 217.98C2.79835 218.514 3.19807 219.848 2.66507 220.781C2.13206 221.715 0.932799 222.115 3.89829e-05 221.582L3.90275e-05 217.847Z" fill="white" fill-opacity="0.16"/>
<path d="M0.000222989 326.703C0.932983 326.303 2.13225 326.57 2.66525 327.503C3.19826 328.437 2.93179 329.771 1.86578 330.305C1.19952 330.705 0.533229 330.705 0.000222945 330.438L0.000222989 326.703Z" fill="white" fill-opacity="0.16"/>
<path d="M63.9607 2.13455C63.9607 2.00114 63.8275 1.86772 63.6942 1.86772L0.932784 1.86772C0.799532 1.86772 0.666265 2.00114 0.666265 2.13454C0.666265 2.26795 0.799532 2.40137 0.932784 2.40137L63.6942 2.40137C63.8275 2.40137 63.9607 2.26795 63.9607 2.13455Z" fill="white" fill-opacity="0.16"/>
<path d="M63.6942 4.1355C64.7602 4.1355 65.693 3.20168 65.693 2.13446C65.693 1.06724 64.7602 0.133419 63.6942 0.133419C62.6282 0.133419 61.6955 1.06724 61.6955 2.13446C61.5622 3.20168 62.495 4.1355 63.6942 4.1355Z" fill="white" fill-opacity="0.16"/>
<path d="M-2.93584e-05 0.266695C0.266474 0.133293 0.532993 -0.000126271 0.932747 -0.000126266C1.99876 -0.000126254 2.93152 0.933692 2.93152 2.00091C2.93152 3.06813 1.99876 4.00195 0.932747 4.00195C0.666244 4.00195 0.266473 3.86857 -2.93997e-05 3.73517L-2.93584e-05 0.266695Z" fill="white" fill-opacity="0.16"/>
<path d="M0.000222989 0.266787C0.932983 -0.133421 2.13225 0.133392 2.66525 1.06721C3.19826 2.00103 2.93179 3.33502 1.86578 3.86863C1.19952 4.26884 0.533229 4.26885 0.000222945 4.00204L0.000222989 0.266787Z" fill="white" fill-opacity="0.16"/>
<path d="M63.9607 2.13455C63.9607 2.00114 63.8275 1.86772 63.6942 1.86772L0.932784 1.86772C0.799532 1.86772 0.666265 2.00114 0.666265 2.13454C0.666265 2.26795 0.799532 2.40137 0.932784 2.40137L63.6942 2.40137C63.8275 2.40137 63.9607 2.26795 63.9607 2.13455Z" fill="white" fill-opacity="0.16"/>
<path d="M63.6942 4.1355C64.8935 4.1355 65.693 3.20168 65.693 2.13446C65.693 1.06724 64.7602 0.133419 63.6942 0.133419C62.6282 0.133419 61.6955 1.06724 61.6955 2.13446C61.5622 3.20168 62.495 4.1355 63.6942 4.1355Z" fill="white" fill-opacity="0.16"/>
<path d="M-2.93584e-05 0.266695C0.266474 0.133293 0.532993 -0.000126271 0.932747 -0.000126266C1.99876 -0.000126254 2.93152 0.933692 2.93152 2.00091C2.93152 3.20154 1.99876 4.00195 0.932747 4.00195C0.666244 4.00195 0.266473 3.86857 -2.93997e-05 3.73517L-2.93584e-05 0.266695Z" fill="white" fill-opacity="0.16"/>
<path d="M95.2748 56.5628L95.2748 56.4294L63.9607 2.00109C63.8274 1.86769 63.6942 1.86768 63.5609 1.86768C63.4277 2.00108 63.4277 2.13451 63.4277 2.26791L94.7418 56.6962C94.875 56.8296 95.0083 56.8296 95.1415 56.8296C95.2748 56.6962 95.2748 56.5628 95.2748 56.5628Z" fill="white" fill-opacity="0.16"/>
<path d="M65.4265 1.06723C64.8935 0.133412 63.561 -0.266804 62.6282 0.266807C61.6954 0.800417 61.2957 2.13445 61.8287 3.06827C62.3617 4.00209 63.6942 4.40226 64.627 3.86865C65.693 3.33504 65.9595 2.00105 65.4265 1.06723Z" fill="white" fill-opacity="0.16"/>
<path d="M96.7406 55.4955C97.2736 56.4293 97.0071 57.7633 95.9411 58.2969C94.8751 58.8305 93.6758 58.5637 93.1428 57.4965C92.6098 56.5627 92.8763 55.2286 93.9423 54.695C95.0083 54.1614 96.2076 54.4282 96.7406 55.4955Z" fill="white" fill-opacity="0.16"/>
<path d="M95.2748 56.5626C95.2748 56.4292 95.2748 56.4292 95.1415 56.2958C95.0083 56.1624 94.875 56.2958 94.7418 56.4292L63.4277 110.858C63.2944 110.991 63.4277 111.124 63.5609 111.258C63.6942 111.391 63.8274 111.258 63.9607 111.124L95.2748 56.696C95.2748 56.5626 95.2748 56.5626 95.2748 56.5626Z" fill="white" fill-opacity="0.16"/>
<path d="M96.7406 57.4965C97.2736 56.5627 97.0071 55.2286 95.9411 54.695C95.0083 54.1614 93.6758 54.4282 93.1428 55.4955C92.6098 56.4293 92.8763 57.7633 93.9423 58.2969C95.0083 58.8305 96.2076 58.5637 96.7406 57.4965Z" fill="white" fill-opacity="0.16"/>
<path d="M65.4265 111.925C64.8935 112.859 63.561 113.259 62.6282 112.725C61.6954 112.191 61.2957 110.857 61.8287 109.924C62.3617 108.99 63.6942 108.59 64.627 109.123C65.693 109.657 65.9595 110.991 65.4265 111.925Z" fill="white" fill-opacity="0.16"/>
<path d="M63.9607 110.857C63.9607 110.724 63.8275 110.591 63.6942 110.591L0.932784 110.591C0.799532 110.591 0.666265 110.724 0.666265 110.857C0.666265 110.991 0.799532 111.124 0.932784 111.124L63.6942 111.124C63.8275 111.124 63.9607 111.124 63.9607 110.857Z" fill="white" fill-opacity="0.16"/>
<path d="M63.6942 112.992C64.7602 112.992 65.693 112.058 65.693 110.991C65.693 109.924 64.7602 108.99 63.6942 108.99C62.6282 108.99 61.6955 109.924 61.6955 110.991C61.5622 112.058 62.495 112.992 63.6942 112.992Z" fill="white" fill-opacity="0.16"/>
<path d="M-2.93584e-05 109.123C0.266474 108.99 0.532993 108.857 0.932747 108.857C1.99876 108.857 2.93152 109.79 2.93152 110.858C2.93152 112.058 1.99876 112.859 0.932747 112.859C0.666244 112.859 0.266473 112.725 -2.93997e-05 112.592L-2.93584e-05 109.123Z" fill="white" fill-opacity="0.16"/>
<path d="M0.000222989 109.123C0.932983 108.723 2.13225 108.99 2.66525 109.924C3.19826 110.857 2.93179 112.191 1.86578 112.725C1.19952 113.125 0.533229 113.125 0.000222945 112.858L0.000222989 109.123Z" fill="white" fill-opacity="0.16"/>
<path d="M3.90275e-05 0.266706C0.533045 -9.94446e-05 1.33259 -9.13047e-05 1.86559 0.400117C2.79835 0.933727 3.19807 2.26772 2.66507 3.20154C2.13206 4.13536 0.932799 4.53557 3.89829e-05 4.00196L3.90275e-05 0.266706Z" fill="white" fill-opacity="0.16"/>
<path d="M63.9607 110.857C63.9607 110.724 63.8275 110.591 63.6942 110.591L0.932784 110.591C0.799532 110.591 0.666265 110.724 0.666265 110.857C0.666265 110.991 0.799532 111.124 0.932784 111.124L63.6942 111.124C63.8275 111.124 63.9607 110.991 63.9607 110.857Z" fill="white" fill-opacity="0.16"/>
<path d="M63.6942 112.992C64.8935 112.992 65.693 112.058 65.693 110.991C65.693 109.924 64.7602 108.99 63.6942 108.99C62.6282 108.99 61.6955 109.924 61.6955 110.991C61.5622 112.058 62.495 112.992 63.6942 112.992Z" fill="white" fill-opacity="0.16"/>
<path d="M-2.93584e-05 109.123C0.266474 108.99 0.532993 108.857 0.932747 108.857C1.99876 108.857 2.93152 109.79 2.93152 110.858C2.93152 111.925 1.99876 112.859 0.932747 112.859C0.666244 112.859 0.266473 112.725 -2.93997e-05 112.592L-2.93584e-05 109.123Z" fill="white" fill-opacity="0.16"/>
<path d="M95.2748 165.286L95.2748 165.153L63.9607 110.724C63.8274 110.591 63.6942 110.591 63.5609 110.591C63.4277 110.724 63.4277 110.858 63.4277 110.991L94.7418 165.419C94.875 165.553 95.0083 165.553 95.1415 165.553C95.2748 165.553 95.2748 165.419 95.2748 165.286Z" fill="white" fill-opacity="0.16"/>
<path d="M65.4265 109.924C64.8935 108.99 63.561 108.59 62.6282 109.123C61.6954 109.657 61.2957 110.991 61.8287 111.925C62.3617 112.859 63.6942 113.259 64.627 112.725C65.693 112.058 65.9595 110.857 65.4265 109.924Z" fill="white" fill-opacity="0.16"/>
<path d="M96.7406 164.219C97.2736 165.152 97.0071 166.486 95.9411 167.02C95.0083 167.554 93.6758 167.287 93.1428 166.22C92.6098 165.286 92.8763 163.952 93.9423 163.418C95.0083 163.018 96.2076 163.285 96.7406 164.219Z" fill="white" fill-opacity="0.16"/>
<path d="M95.2748 165.286C95.2748 165.152 95.2748 165.152 95.1415 165.019C95.0083 164.886 94.875 165.019 94.7418 165.152L63.4277 219.581C63.2944 219.714 63.4277 219.847 63.5609 219.981C63.6942 220.114 63.8274 219.981 63.9607 219.847L95.2748 165.419C95.2748 165.419 95.2748 165.419 95.2748 165.286Z" fill="white" fill-opacity="0.16"/>
<path d="M96.7406 166.353C97.2736 165.419 97.0071 164.085 95.9411 163.552C95.0083 163.018 93.6758 163.285 93.1428 164.352C92.6098 165.286 92.8763 166.62 93.9423 167.154C95.0083 167.687 96.2076 167.287 96.7406 166.353Z" fill="white" fill-opacity="0.16"/>
<path d="M65.4265 220.781C64.8935 221.715 63.561 222.115 62.6282 221.582C61.6954 221.048 61.2957 219.714 61.8287 218.78C62.3617 217.847 63.6942 217.446 64.627 217.98C65.693 218.514 65.9595 219.714 65.4265 220.781Z" fill="white" fill-opacity="0.16"/>
<path d="M63.9607 219.714C63.9607 219.581 63.8275 219.447 63.6942 219.447L0.932784 219.447C0.799532 219.447 0.666265 219.581 0.666265 219.714C0.666265 219.848 0.799532 219.981 0.932784 219.981L63.6942 219.981C63.8275 219.981 63.9607 219.848 63.9607 219.714Z" fill="white" fill-opacity="0.16"/>
<path d="M63.6942 221.715C64.7602 221.715 65.693 220.781 65.693 219.714C65.693 218.647 64.7602 217.713 63.6942 217.713C62.6282 217.713 61.6955 218.647 61.6955 219.714C61.5622 220.915 62.495 221.715 63.6942 221.715Z" fill="white" fill-opacity="0.16"/>
<path d="M-2.93584e-05 217.847C0.266474 217.713 0.532993 217.58 0.932747 217.58C1.99876 217.58 2.93152 218.514 2.93152 219.581C2.93152 220.648 1.99876 221.582 0.932747 221.582C0.666244 221.582 0.266473 221.448 -2.93997e-05 221.315L-2.93584e-05 217.847Z" fill="white" fill-opacity="0.16"/>
<path d="M0.000222989 217.846C0.932983 217.446 2.13225 217.713 2.66525 218.647C3.19826 219.581 2.93179 220.915 1.86578 221.448C1.19952 221.848 0.533229 221.848 0.000222945 221.582L0.000222989 217.846Z" fill="white" fill-opacity="0.16"/>
<path d="M3.90275e-05 108.99C0.533045 108.723 1.33259 108.723 1.86559 109.123C2.79835 109.657 3.19807 110.991 2.66507 111.925C2.13206 112.859 0.932799 113.259 3.89829e-05 112.725L3.90275e-05 108.99Z" fill="white" fill-opacity="0.16"/>
<path d="M63.9607 219.714C63.9607 219.581 63.8275 219.447 63.6942 219.447L0.932784 219.447C0.799532 219.447 0.666265 219.581 0.666265 219.714C0.666265 219.848 0.799532 219.981 0.932784 219.981L63.6942 219.981C63.8275 219.981 63.9607 219.848 63.9607 219.714Z" fill="white" fill-opacity="0.16"/>
<path d="M63.6942 221.715C64.8935 221.715 65.693 220.781 65.693 219.714C65.693 218.647 64.7602 217.713 63.6942 217.713C62.6282 217.713 61.6955 218.647 61.6955 219.714C61.5622 220.781 62.495 221.715 63.6942 221.715Z" fill="white" fill-opacity="0.16"/>
<path d="M-2.93584e-05 217.847C0.266474 217.713 0.532993 217.58 0.932747 217.58C1.99876 217.58 2.93152 218.514 2.93152 219.581C2.93152 220.648 1.99876 221.582 0.932747 221.582C0.666244 221.582 0.266473 221.448 -2.93997e-05 221.315L-2.93584e-05 217.847Z" fill="white" fill-opacity="0.16"/>
<path d="M95.2748 274.142L95.2748 274.009L63.9607 219.581C63.8274 219.447 63.6942 219.447 63.5609 219.447C63.4277 219.581 63.4277 219.714 63.4277 219.847L94.7418 274.276C94.875 274.409 95.0083 274.409 95.1415 274.409C95.2748 274.276 95.2748 274.276 95.2748 274.142Z" fill="white" fill-opacity="0.16"/>
<path d="M65.4265 218.647C64.8935 217.713 63.561 217.313 62.6282 217.846C61.6954 218.38 61.2957 219.714 61.8287 220.648C62.3617 221.582 63.6942 221.982 64.627 221.448C65.693 220.915 65.9595 219.714 65.4265 218.647Z" fill="white" fill-opacity="0.16"/>
<path d="M96.7406 273.075C97.2736 274.009 97.0071 275.343 95.9411 275.877C95.0083 276.41 93.6758 276.143 93.1428 275.076C92.6098 274.142 92.8763 272.808 93.9423 272.275C95.0083 271.741 96.2076 272.141 96.7406 273.075Z" fill="white" fill-opacity="0.16"/>
<path d="M95.2748 274.142C95.2748 274.009 95.2748 274.009 95.1415 273.876C95.0083 273.742 94.875 273.876 94.7418 274.009L63.4277 328.437C63.2944 328.571 63.4277 328.704 63.5609 328.838C63.6942 328.971 63.8274 328.838 63.9607 328.704L95.2748 274.276L95.2748 274.142Z" fill="white" fill-opacity="0.16"/>
<path d="M96.7406 275.21C97.2736 274.276 97.0071 272.942 95.9411 272.408C95.0083 271.875 93.6758 272.141 93.1428 273.209C92.6098 274.142 92.8763 275.476 93.9423 276.01C95.0083 276.41 96.2076 276.143 96.7406 275.21Z" fill="white" fill-opacity="0.16"/>
<path d="M65.4265 329.505C64.8935 330.438 63.561 330.839 62.6282 330.305C61.6954 329.771 61.2957 328.437 61.8287 327.503C62.3617 326.57 63.6942 326.169 64.627 326.703C65.693 327.37 65.9595 328.571 65.4265 329.505Z" fill="white" fill-opacity="0.16"/>
<path d="M63.9607 328.571C63.9607 328.437 63.8275 328.304 63.6942 328.304L0.932784 328.304C0.799532 328.304 0.666265 328.437 0.666265 328.571C0.666265 328.704 0.799532 328.838 0.932784 328.838L63.6942 328.838C63.8275 328.838 63.9607 328.704 63.9607 328.571Z" fill="white" fill-opacity="0.16"/>
<path d="M63.6942 330.572C64.7602 330.572 65.693 329.638 65.693 328.571C65.693 327.504 64.7602 326.57 63.6942 326.57C62.6282 326.57 61.6955 327.504 61.6955 328.571C61.5622 329.638 62.495 330.572 63.6942 330.572Z" fill="white" fill-opacity="0.16"/>
<path d="M-2.93584e-05 326.703C0.266474 326.57 0.532993 326.436 0.932747 326.436C1.99876 326.436 2.93152 327.37 2.93152 328.437C2.93152 329.638 1.99876 330.438 0.932747 330.438C0.666244 330.438 0.266473 330.305 -2.93997e-05 330.172L-2.93584e-05 326.703Z" fill="white" fill-opacity="0.16"/>
<path d="M0.000222989 326.703C0.932983 326.303 2.13225 326.57 2.66525 327.503C3.19826 328.437 2.93179 329.771 1.86578 330.305C1.19952 330.705 0.533229 330.705 0.000222945 330.438L0.000222989 326.703Z" fill="white" fill-opacity="0.16"/>
<path d="M3.90275e-05 217.847C0.533045 217.58 1.33259 217.58 1.86559 217.98C2.79835 218.514 3.19807 219.848 2.66507 220.781C2.13206 221.715 0.932799 222.115 3.89829e-05 221.582L3.90275e-05 217.847Z" fill="white" fill-opacity="0.16"/>
<path d="M95.2748 56.5623L95.2748 56.4289L63.9607 2.0006C63.8274 1.8672 63.6942 1.86719 63.5609 1.86719C63.4277 2.00059 63.4277 2.13402 63.4277 2.26742L94.7418 56.6957C94.875 56.8291 95.0083 56.8291 95.1415 56.8291C95.2748 56.6957 95.2748 56.5623 95.2748 56.5623Z" fill="white" fill-opacity="0.16"/>
<path d="M93.276 57.4962C93.809 58.43 95.1415 58.8303 96.0743 58.2966C97.0071 57.763 97.4068 56.429 96.8738 55.4952C96.3408 54.5614 95.0083 54.1611 94.0755 54.6948C93.0095 55.2284 92.743 56.5624 93.276 57.4962Z" fill="white" fill-opacity="0.16"/>
<path d="M61.8287 3.06806C61.2957 2.13424 61.5622 0.800204 62.6282 0.266593C63.561 -0.267017 64.8935 -0.000203896 65.4265 1.06702C65.9595 2.00084 65.693 3.33483 64.627 3.86844C63.6942 4.40205 62.495 4.13528 61.8287 3.06806Z" fill="white" fill-opacity="0.16"/>
<path d="M189.484 110.857C189.484 110.724 189.484 110.724 189.35 110.591C189.217 110.457 189.084 110.591 188.951 110.724L157.637 165.152C157.503 165.286 157.637 165.419 157.77 165.552C157.903 165.686 158.036 165.552 158.17 165.419L189.484 110.991C189.484 110.991 189.484 110.991 189.484 110.857Z" fill="white" fill-opacity="0.16"/>
<path d="M190.949 111.925C191.482 110.991 191.216 109.657 190.15 109.123C189.217 108.59 187.885 108.856 187.352 109.924C186.819 110.857 187.085 112.191 188.151 112.725C189.084 113.259 190.416 112.859 190.949 111.925Z" fill="white" fill-opacity="0.16"/>
<path d="M159.502 166.353C158.969 167.287 157.637 167.687 156.704 167.153C155.771 166.62 155.371 165.286 155.904 164.352C156.437 163.418 157.77 163.018 158.703 163.551C159.769 164.085 160.168 165.419 159.502 166.353Z" fill="white" fill-opacity="0.16"/>
<path d="M158.036 165.286C158.036 165.152 157.903 165.019 157.77 165.019L95.0083 165.019C94.8751 165.019 94.7418 165.152 94.7418 165.286C94.7418 165.419 94.8751 165.552 95.0083 165.552L157.77 165.552C157.903 165.552 158.036 165.419 158.036 165.286Z" fill="white" fill-opacity="0.16"/>
<path d="M157.77 167.42C158.969 167.42 159.769 166.486 159.769 165.419C159.769 164.352 158.836 163.418 157.77 163.418C156.571 163.418 155.771 164.352 155.771 165.419C155.771 166.486 156.704 167.42 157.77 167.42Z" fill="white" fill-opacity="0.16"/>
<path d="M95.0083 167.42C93.809 167.42 93.0095 166.486 93.0095 165.419C93.0095 164.219 93.9423 163.418 95.0083 163.418C96.2076 163.418 97.0071 164.352 97.0071 165.419C97.1403 166.486 96.2076 167.42 95.0083 167.42Z" fill="white" fill-opacity="0.16"/>
<path d="M95.2749 165.286L95.2749 165.152L63.9608 110.724C63.8275 110.591 63.6943 110.591 63.5611 110.591C63.4278 110.724 63.4278 110.857 63.4278 110.991L94.7419 165.419C94.8751 165.552 95.0084 165.552 95.1416 165.552C95.2749 165.552 95.2749 165.419 95.2749 165.286Z" fill="white" fill-opacity="0.16"/>
<path d="M93.2762 166.353C93.8092 167.287 95.1417 167.687 96.0744 167.153C97.0072 166.62 97.4069 165.286 96.8739 164.352C96.3409 163.418 95.0084 163.018 94.0757 163.551C93.0096 164.085 92.7431 165.419 93.2762 166.353Z" fill="white" fill-opacity="0.16"/>
<path d="M61.8289 111.925C61.2958 110.991 61.5623 109.657 62.6283 109.123C63.5611 108.59 64.8936 108.856 65.4266 109.924C65.9596 110.857 65.6931 112.191 64.6271 112.725C63.6943 113.259 62.4951 112.859 61.8289 111.925Z" fill="white" fill-opacity="0.16"/>
<path d="M95.2748 56.5624C95.2748 56.429 95.2748 56.429 95.1415 56.2956C95.0083 56.1622 94.875 56.2956 94.7418 56.429L63.4277 110.857C63.2944 110.991 63.4277 111.124 63.5609 111.257C63.6942 111.391 63.8274 111.257 63.9607 111.124L95.2748 56.6958C95.2748 56.5624 95.2748 56.5624 95.2748 56.5624Z" fill="white" fill-opacity="0.16"/>
<path d="M61.8287 109.923C61.2957 110.857 61.5622 112.191 62.6282 112.725C63.561 113.259 64.8935 112.992 65.4265 111.924C65.9595 110.991 65.693 109.657 64.627 109.123C63.6942 108.589 62.495 108.856 61.8287 109.923Z" fill="white" fill-opacity="0.16"/>
<path d="M93.276 55.4952C93.809 54.5614 95.1415 54.1611 96.0743 54.6948C97.0071 55.2284 97.4068 56.5624 96.8738 57.4962C96.3408 58.43 95.0083 58.8303 94.0755 58.2966C93.0095 57.763 92.743 56.429 93.276 55.4952Z" fill="white" fill-opacity="0.16"/>
<path d="M158.036 165.286C158.036 165.152 157.903 165.019 157.77 165.019L95.0083 165.019C94.8751 165.019 94.7418 165.152 94.7418 165.286C94.7418 165.419 94.8751 165.552 95.0083 165.552L157.77 165.552C157.903 165.552 158.036 165.419 158.036 165.286Z" fill="white" fill-opacity="0.16"/>
<path d="M157.77 167.42C158.836 167.42 159.769 166.486 159.769 165.419C159.769 164.352 158.836 163.418 157.77 163.418C156.571 163.418 155.771 164.352 155.771 165.419C155.771 166.486 156.704 167.42 157.77 167.42Z" fill="white" fill-opacity="0.16"/>
<path d="M95.0083 167.42C93.9423 167.42 93.0095 166.486 93.0095 165.419C93.0095 164.352 93.9423 163.418 95.0083 163.418C96.2076 163.418 97.0071 164.352 97.0071 165.419C97.0071 166.486 96.2076 167.42 95.0083 167.42Z" fill="white" fill-opacity="0.16"/>
<path d="M189.484 219.714L189.484 219.581L158.17 165.152C158.036 165.019 157.903 165.019 157.77 165.019C157.637 165.152 157.637 165.286 157.637 165.419L188.951 219.848C189.084 219.981 189.217 219.981 189.35 219.981C189.35 219.848 189.484 219.848 189.484 219.714Z" fill="white" fill-opacity="0.16"/>
<path d="M159.502 164.219C158.969 163.285 157.637 162.885 156.704 163.418C155.771 163.952 155.371 165.286 155.904 166.22C156.437 167.153 157.77 167.554 158.703 167.02C159.769 166.486 160.168 165.286 159.502 164.219Z" fill="white" fill-opacity="0.16"/>
<path d="M190.949 218.647C191.482 219.581 191.216 220.915 190.15 221.448C189.217 221.982 187.885 221.715 187.352 220.648C186.819 219.714 187.085 218.38 188.151 217.846C189.084 217.313 190.416 217.713 190.949 218.647Z" fill="white" fill-opacity="0.16"/>
<path d="M189.484 219.714C189.484 219.581 189.484 219.581 189.35 219.447C189.217 219.314 189.084 219.447 188.951 219.581L157.637 274.009C157.503 274.142 157.637 274.276 157.77 274.409C157.903 274.543 158.036 274.409 158.17 274.276L189.484 219.847L189.484 219.714Z" fill="white" fill-opacity="0.16"/>
<path d="M190.949 220.781C191.482 219.848 191.216 218.514 190.15 217.98C189.217 217.446 187.885 217.713 187.352 218.78C186.819 219.714 187.085 221.048 188.151 221.582C189.084 222.115 190.416 221.715 190.949 220.781Z" fill="white" fill-opacity="0.16"/>
<path d="M159.502 275.21C158.969 276.143 157.637 276.544 156.704 276.01C155.771 275.476 155.371 274.142 155.904 273.209C156.437 272.275 157.77 271.875 158.703 272.408C159.769 272.942 160.168 274.142 159.502 275.21Z" fill="white" fill-opacity="0.16"/>
<path d="M158.036 274.142C158.036 274.009 157.903 273.876 157.77 273.876L95.0083 273.876C94.8751 273.876 94.7418 274.009 94.7418 274.142C94.7418 274.276 94.8751 274.409 95.0083 274.409L157.77 274.409C157.903 274.409 158.036 274.276 158.036 274.142Z" fill="white" fill-opacity="0.16"/>
<path d="M157.77 276.143C158.969 276.143 159.769 275.209 159.769 274.142C159.769 272.942 158.836 272.141 157.77 272.141C156.571 272.141 155.771 273.075 155.771 274.142C155.771 275.209 156.704 276.143 157.77 276.143Z" fill="white" fill-opacity="0.16"/>
<path d="M95.0083 276.143C93.809 276.143 93.0095 275.209 93.0095 274.142C93.0095 273.075 93.9423 272.141 95.0083 272.141C96.2076 272.141 97.0071 273.075 97.0071 274.142C97.1403 275.209 96.2076 276.143 95.0083 276.143Z" fill="white" fill-opacity="0.16"/>
<path d="M95.2749 274.142L95.2749 274.009L63.9608 219.581C63.8275 219.447 63.6943 219.447 63.5611 219.447C63.4278 219.581 63.4278 219.714 63.4278 219.847L94.7419 274.276C94.8751 274.409 95.0084 274.409 95.1416 274.409C95.2749 274.276 95.2749 274.276 95.2749 274.142Z" fill="white" fill-opacity="0.16"/>
<path d="M93.2762 275.21C93.8092 276.143 95.1417 276.544 96.0744 276.01C97.0072 275.476 97.4069 274.142 96.8739 273.209C96.3409 272.275 95.0084 271.875 94.0757 272.408C93.0096 272.942 92.7431 274.142 93.2762 275.21Z" fill="white" fill-opacity="0.16"/>
<path d="M61.8289 220.781C61.2958 219.848 61.5623 218.514 62.6283 217.98C63.5611 217.446 64.8936 217.713 65.4266 218.78C65.9596 219.714 65.6931 221.048 64.6271 221.582C63.6943 222.115 62.4951 221.715 61.8289 220.781Z" fill="white" fill-opacity="0.16"/>
<path d="M95.2749 165.286C95.2749 165.152 95.2749 165.152 95.1416 165.019C95.0084 164.886 94.8751 165.019 94.7419 165.152L63.4278 219.581C63.2945 219.714 63.4278 219.847 63.5611 219.981C63.6943 220.114 63.8275 219.981 63.9608 219.847L95.2749 165.419C95.2749 165.419 95.2749 165.419 95.2749 165.286Z" fill="white" fill-opacity="0.16"/>
<path d="M61.8289 218.647C61.2958 219.581 61.5623 220.915 62.6283 221.448C63.5611 221.982 64.8936 221.715 65.4266 220.648C65.9596 219.714 65.6931 218.38 64.6271 217.846C63.6943 217.313 62.4951 217.713 61.8289 218.647Z" fill="white" fill-opacity="0.16"/>
<path d="M93.2762 164.219C93.8092 163.285 95.1417 162.885 96.0744 163.418C97.0072 163.952 97.4069 165.286 96.8739 166.22C96.3409 167.153 95.0084 167.554 94.0757 167.02C93.0096 166.486 92.7431 165.286 93.2762 164.219Z" fill="white" fill-opacity="0.16"/>
<path d="M158.036 274.142C158.036 274.009 157.903 273.876 157.77 273.876L95.0083 273.876C94.8751 273.876 94.7418 274.009 94.7418 274.142C94.7418 274.276 94.8751 274.409 95.0083 274.409L157.77 274.409C157.903 274.409 158.036 274.276 158.036 274.142Z" fill="white" fill-opacity="0.16"/>
<path d="M157.77 276.143C158.836 276.143 159.769 275.209 159.769 274.142C159.769 272.942 158.836 272.141 157.77 272.141C156.571 272.141 155.771 273.075 155.771 274.142C155.771 275.209 156.704 276.143 157.77 276.143Z" fill="white" fill-opacity="0.16"/>
<path d="M95.0083 276.143C93.9423 276.143 93.0095 275.209 93.0095 274.142C93.0095 272.942 93.9423 272.141 95.0083 272.141C96.2076 272.141 97.0071 273.075 97.0071 274.142C97.1403 275.209 96.2076 276.143 95.0083 276.143Z" fill="white" fill-opacity="0.16"/>
<path d="M189.484 328.571L189.484 328.437L158.17 274.009C158.036 273.876 157.903 273.876 157.77 273.876C157.637 274.009 157.637 274.143 157.637 274.276L188.951 328.704C189.084 328.838 189.217 328.838 189.35 328.838C189.35 328.704 189.484 328.571 189.484 328.571Z" fill="white" fill-opacity="0.16"/>
<path d="M159.502 273.075C158.969 272.141 157.637 271.741 156.704 272.275C155.771 272.808 155.371 274.142 155.904 275.076C156.437 276.01 157.77 276.41 158.703 275.877C159.769 275.343 160.168 274.142 159.502 273.075Z" fill="white" fill-opacity="0.16"/>
<path d="M190.949 327.504C191.482 328.437 191.216 329.771 190.15 330.305C189.217 330.839 187.885 330.572 187.352 329.505C186.819 328.571 187.085 327.237 188.151 326.703C189.084 326.169 190.416 326.57 190.949 327.504Z" fill="white" fill-opacity="0.16"/>
<path d="M189.484 328.571C189.484 328.437 189.484 328.437 189.35 328.304C189.217 328.17 189.084 328.304 188.951 328.437L157.503 382.866C157.37 382.999 157.503 383.132 157.637 383.266C157.77 383.399 157.903 383.266 158.036 383.132L189.35 328.704C189.484 328.571 189.484 328.571 189.484 328.571Z" fill="white" fill-opacity="0.16"/>
<path d="M190.949 329.505C191.482 328.571 191.216 327.237 190.15 326.703C189.217 326.169 187.885 326.436 187.352 327.504C186.819 328.437 187.085 329.771 188.151 330.305C189.084 330.839 190.416 330.572 190.949 329.505Z" fill="white" fill-opacity="0.16"/>
<path d="M159.502 383.933C158.969 384.867 157.637 385.267 156.704 384.733C155.771 384.2 155.371 382.866 155.904 381.932C156.437 380.998 157.77 380.598 158.703 381.131C159.769 381.798 160.168 382.999 159.502 383.933Z" fill="white" fill-opacity="0.16"/>
<path d="M158.036 382.999C158.036 382.865 157.903 382.732 157.77 382.732L95.0083 382.732C94.8751 382.732 94.7418 382.865 94.7418 382.999C94.7418 383.132 94.8751 383.266 95.0083 383.266L157.77 383.266C157.903 383.266 158.036 383.132 158.036 382.999Z" fill="white" fill-opacity="0.16"/>
<path d="M156.324 381.563C157.105 380.781 158.37 380.781 159.151 381.563C159.932 382.344 159.932 383.611 159.151 384.393C158.37 385.174 157.105 385.174 156.324 384.393C155.544 383.611 155.544 382.344 156.324 381.563Z" fill="white" fill-opacity="0.16"/>
<path d="M95.0083 385C93.809 385 93.0095 384.066 93.0095 382.999C93.0095 381.798 93.9423 380.998 95.0083 380.998C96.2076 380.998 97.0071 381.932 97.0071 382.999C97.1403 384.066 96.2076 385 95.0083 385Z" fill="white" fill-opacity="0.16"/>
<path d="M95.2749 382.999L95.2749 382.865L63.9608 328.437C63.8275 328.304 63.6943 328.304 63.5611 328.304C63.4278 328.437 63.4278 328.571 63.4278 328.704L94.7419 383.132C94.8751 383.266 95.0084 383.266 95.1416 383.266C95.2749 383.132 95.2749 382.999 95.2749 382.999Z" fill="white" fill-opacity="0.16"/>
<path d="M93.2762 383.933C93.8092 384.867 95.1417 385.267 96.0744 384.733C97.0072 384.2 97.4069 382.866 96.8739 381.932C96.3409 380.998 95.0084 380.598 94.0757 381.131C93.0096 381.665 92.7431 382.999 93.2762 383.933Z" fill="white" fill-opacity="0.16"/>
<path d="M61.8289 329.505C61.2958 328.571 61.5623 327.237 62.6283 326.703C63.5611 326.169 64.8936 326.436 65.4266 327.504C65.9596 328.437 65.6931 329.771 64.6271 330.305C63.6943 330.839 62.4951 330.572 61.8289 329.505Z" fill="white" fill-opacity="0.16"/>
<path d="M95.2749 274.142C95.2749 274.009 95.2749 274.009 95.1416 273.876C95.0084 273.742 94.8751 273.876 94.7419 274.009L63.4278 328.437C63.2945 328.571 63.4278 328.704 63.5611 328.838C63.6943 328.971 63.8275 328.838 63.9608 328.704L95.2749 274.276L95.2749 274.142Z" fill="white" fill-opacity="0.16"/>
<path d="M61.8289 327.504C61.2958 328.437 61.5623 329.771 62.6283 330.305C63.5611 330.839 64.8936 330.572 65.4266 329.505C65.9596 328.571 65.6931 327.237 64.6271 326.703C63.6943 326.169 62.4951 326.57 61.8289 327.504Z" fill="white" fill-opacity="0.16"/>
<path d="M93.2762 273.075C93.8092 272.141 95.1417 271.741 96.0744 272.275C97.0072 272.808 97.4069 274.142 96.8739 275.076C96.3409 276.01 95.0084 276.41 94.0757 275.877C93.0096 275.343 92.7431 274.142 93.2762 273.075Z" fill="white" fill-opacity="0.16"/>
<path d="M283.559 165.286C283.559 165.152 283.559 165.152 283.426 165.019C283.293 164.886 283.159 165.019 283.026 165.152L251.712 219.581C251.579 219.714 251.712 219.847 251.845 219.981C251.978 220.114 252.112 219.981 252.245 219.847L283.559 165.419C283.559 165.419 283.559 165.419 283.559 165.286Z" fill="white" fill-opacity="0.16"/>
<path d="M285.025 166.353C285.558 165.419 285.291 164.085 284.225 163.552C283.293 163.018 281.96 163.285 281.427 164.352C280.894 165.286 281.161 166.62 282.227 167.154C283.293 167.687 284.492 167.287 285.025 166.353Z" fill="white" fill-opacity="0.16"/>
<path d="M253.711 220.781C253.178 221.715 251.845 222.115 250.913 221.582C249.98 221.048 249.58 219.714 250.113 218.78C250.646 217.847 251.979 217.446 252.911 217.98C253.977 218.514 254.244 219.714 253.711 220.781Z" fill="white" fill-opacity="0.16"/>
<path d="M252.245 219.714C252.245 219.581 252.112 219.447 251.978 219.447L189.217 219.447C189.084 219.447 188.951 219.581 188.951 219.714C188.951 219.848 189.084 219.981 189.217 219.981L251.978 219.981C252.112 219.981 252.245 219.848 252.245 219.714Z" fill="white" fill-opacity="0.16"/>
<path d="M251.979 221.715C253.178 221.715 253.977 220.781 253.977 219.714C253.977 218.647 253.045 217.713 251.979 217.713C250.913 217.713 249.98 218.647 249.98 219.714C249.847 220.915 250.779 221.715 251.979 221.715Z" fill="white" fill-opacity="0.16"/>
<path d="M189.217 221.715C188.018 221.715 187.218 220.781 187.218 219.714C187.218 218.513 188.151 217.713 189.217 217.713C190.283 217.713 191.216 218.647 191.216 219.714C191.216 220.915 190.283 221.715 189.217 221.715Z" fill="white" fill-opacity="0.16"/>
<path d="M189.484 219.714L189.484 219.581L158.17 165.152C158.037 165.019 157.903 165.019 157.77 165.019C157.637 165.152 157.637 165.286 157.637 165.419L188.951 219.848C189.084 219.981 189.217 219.981 189.351 219.981C189.351 219.848 189.484 219.848 189.484 219.714Z" fill="white" fill-opacity="0.16"/>
<path d="M187.352 220.781C187.885 221.715 189.217 222.115 190.15 221.582C191.083 221.048 191.483 219.714 190.95 218.78C190.417 217.847 189.084 217.446 188.151 217.98C187.219 218.514 186.819 219.714 187.352 220.781Z" fill="white" fill-opacity="0.16"/>
<path d="M156.038 166.353C155.505 165.419 155.771 164.085 156.837 163.552C157.77 163.018 159.102 163.285 159.635 164.352C160.168 165.286 159.902 166.62 158.836 167.154C157.77 167.687 156.571 167.287 156.038 166.353Z" fill="white" fill-opacity="0.16"/>
<path d="M189.484 110.858C189.484 110.724 189.484 110.724 189.351 110.591C189.217 110.457 189.084 110.591 188.951 110.724L157.637 165.152C157.504 165.286 157.637 165.419 157.77 165.553C157.903 165.686 158.037 165.553 158.17 165.419L189.484 110.991C189.484 110.991 189.484 110.991 189.484 110.858Z" fill="white" fill-opacity="0.16"/>
<path d="M156.038 164.219C155.505 165.152 155.771 166.486 156.837 167.02C157.77 167.554 159.102 167.287 159.635 166.22C160.168 165.286 159.902 163.952 158.836 163.418C157.77 163.018 156.571 163.285 156.038 164.219Z" fill="white" fill-opacity="0.16"/>
<path d="M187.352 109.924C187.885 108.99 189.217 108.59 190.15 109.123C191.083 109.657 191.483 110.991 190.95 111.925C190.417 112.859 189.084 113.259 188.151 112.725C187.219 112.058 186.819 110.857 187.352 109.924Z" fill="white" fill-opacity="0.16"/>
<path d="M252.245 219.714C252.245 219.581 252.112 219.447 251.978 219.447L189.217 219.447C189.084 219.447 188.951 219.581 188.951 219.714C188.951 219.848 189.084 219.981 189.217 219.981L251.978 219.981C252.112 219.981 252.245 219.848 252.245 219.714Z" fill="white" fill-opacity="0.16"/>
<path d="M251.979 221.715C253.178 221.715 253.977 220.781 253.977 219.714C253.977 218.647 253.045 217.713 251.979 217.713C250.913 217.713 249.98 218.647 249.98 219.714C249.847 220.781 250.779 221.715 251.979 221.715Z" fill="white" fill-opacity="0.16"/>
<path d="M189.217 221.715C188.018 221.715 187.218 220.781 187.218 219.714C187.218 218.647 188.151 217.713 189.217 217.713C190.283 217.713 191.216 218.647 191.216 219.714C191.216 220.781 190.283 221.715 189.217 221.715Z" fill="white" fill-opacity="0.16"/>
<path d="M283.559 274.142L283.559 274.009L252.245 219.581C252.112 219.447 251.978 219.447 251.845 219.447C251.712 219.581 251.712 219.714 251.712 219.847L283.026 274.276C283.159 274.409 283.293 274.409 283.426 274.409C283.559 274.276 283.559 274.276 283.559 274.142Z" fill="white" fill-opacity="0.16"/>
<path d="M253.711 218.647C253.178 217.713 251.845 217.313 250.913 217.846C249.98 218.38 249.58 219.714 250.113 220.648C250.646 221.582 251.979 221.982 252.911 221.448C253.977 220.915 254.244 219.714 253.711 218.647Z" fill="white" fill-opacity="0.16"/>
<path d="M285.025 273.075C285.558 274.009 285.291 275.343 284.225 275.877C283.293 276.41 281.96 276.143 281.427 275.076C280.894 274.142 281.161 272.808 282.227 272.275C283.293 271.741 284.492 272.141 285.025 273.075Z" fill="white" fill-opacity="0.16"/>
<path d="M283.559 274.142C283.559 274.009 283.559 274.009 283.426 273.876C283.293 273.742 283.159 273.876 283.026 274.009L251.712 328.437C251.579 328.571 251.712 328.704 251.845 328.838C251.978 328.971 252.112 328.838 252.245 328.704L283.559 274.276L283.559 274.142Z" fill="white" fill-opacity="0.16"/>
<path d="M285.025 275.21C285.558 274.276 285.291 272.942 284.225 272.408C283.293 271.875 281.96 272.141 281.427 273.209C280.894 274.142 281.161 275.476 282.227 276.01C283.293 276.41 284.492 276.143 285.025 275.21Z" fill="white" fill-opacity="0.16"/>
<path d="M253.711 329.505C253.178 330.438 251.845 330.839 250.913 330.305C249.98 329.771 249.58 328.437 250.113 327.503C250.646 326.57 251.979 326.169 252.911 326.703C253.977 327.37 254.244 328.571 253.711 329.505Z" fill="white" fill-opacity="0.16"/>
<path d="M252.245 328.571C252.245 328.437 252.112 328.304 251.978 328.304L189.217 328.304C189.084 328.304 188.951 328.437 188.951 328.571C188.951 328.704 189.084 328.838 189.217 328.838L251.978 328.838C252.112 328.838 252.245 328.704 252.245 328.571Z" fill="white" fill-opacity="0.16"/>
<path d="M251.979 330.572C253.178 330.572 253.977 329.638 253.977 328.571C253.977 327.504 253.045 326.57 251.979 326.57C250.913 326.57 249.98 327.504 249.98 328.571C249.847 329.638 250.779 330.572 251.979 330.572Z" fill="white" fill-opacity="0.16"/>
<path d="M189.217 330.572C188.018 330.572 187.218 329.638 187.218 328.571C187.218 327.504 188.151 326.57 189.217 326.57C190.283 326.57 191.216 327.504 191.216 328.571C191.216 329.638 190.283 330.572 189.217 330.572Z" fill="white" fill-opacity="0.16"/>
<path d="M189.484 328.571L189.484 328.437L158.17 274.009C158.037 273.876 157.903 273.876 157.77 273.876C157.637 274.009 157.637 274.142 157.637 274.276L188.951 328.704C189.084 328.837 189.217 328.837 189.351 328.837C189.351 328.704 189.484 328.571 189.484 328.571Z" fill="white" fill-opacity="0.16"/>
<path d="M187.352 329.505C187.885 330.438 189.217 330.839 190.15 330.305C191.083 329.771 191.483 328.437 190.95 327.503C190.417 326.57 189.084 326.169 188.151 326.703C187.219 327.37 186.819 328.571 187.352 329.505Z" fill="white" fill-opacity="0.16"/>
<path d="M156.038 275.21C155.505 274.276 155.771 272.942 156.837 272.408C157.77 271.875 159.102 272.141 159.635 273.209C160.168 274.142 159.902 275.476 158.836 276.01C157.77 276.41 156.571 276.143 156.038 275.21Z" fill="white" fill-opacity="0.16"/>
<path d="M189.484 219.714C189.484 219.581 189.484 219.581 189.351 219.447C189.217 219.314 189.084 219.447 188.951 219.581L157.637 274.009C157.504 274.142 157.637 274.276 157.77 274.409C157.903 274.543 158.037 274.409 158.17 274.276L189.484 219.847L189.484 219.714Z" fill="white" fill-opacity="0.16"/>
<path d="M156.038 273.075C155.505 274.009 155.771 275.343 156.837 275.877C157.77 276.41 159.102 276.143 159.635 275.076C160.168 274.142 159.902 272.808 158.836 272.275C157.77 271.741 156.571 272.141 156.038 273.075Z" fill="white" fill-opacity="0.16"/>
<path d="M187.352 218.647C187.885 217.713 189.217 217.313 190.15 217.846C191.083 218.38 191.483 219.714 190.95 220.648C190.417 221.582 189.084 221.982 188.151 221.448C187.219 220.915 186.819 219.714 187.352 218.647Z" fill="white" fill-opacity="0.16"/>
<path d="M346.321 165.286C346.321 165.152 346.187 165.019 346.054 165.019L283.293 165.019C283.159 165.019 283.026 165.152 283.026 165.286C283.026 165.419 283.159 165.552 283.293 165.552L346.054 165.552C346.187 165.552 346.321 165.419 346.321 165.286Z" fill="white" fill-opacity="0.16"/>
<path d="M346.054 167.42C347.12 167.42 348.053 166.486 348.053 165.419C348.053 164.352 347.12 163.418 346.054 163.418C344.988 163.418 344.055 164.352 344.055 165.419C344.055 166.486 344.855 167.42 346.054 167.42Z" fill="white" fill-opacity="0.16"/>
<path d="M283.293 167.42C282.227 167.42 281.294 166.486 281.294 165.419C281.294 164.219 282.227 163.418 283.293 163.418C284.359 163.418 285.291 164.352 285.291 165.419C285.291 166.486 284.492 167.42 283.293 167.42Z" fill="white" fill-opacity="0.16"/>
<path d="M346.321 165.286C346.321 165.152 346.187 165.019 346.054 165.019L283.293 165.019C283.159 165.019 283.026 165.152 283.026 165.286C283.026 165.419 283.159 165.552 283.293 165.552L346.054 165.552C346.187 165.552 346.321 165.419 346.321 165.286Z" fill="white" fill-opacity="0.16"/>
<path d="M346.054 167.42C347.12 167.42 348.053 166.486 348.053 165.419C348.053 164.352 347.12 163.418 346.054 163.418C344.988 163.418 344.055 164.352 344.055 165.419C344.055 166.486 344.855 167.42 346.054 167.42Z" fill="white" fill-opacity="0.16"/>
<path d="M283.293 167.42C282.227 167.42 281.294 166.486 281.294 165.419C281.294 164.352 282.227 163.418 283.293 163.418C284.359 163.418 285.291 164.352 285.291 165.419C285.291 166.486 284.492 167.42 283.293 167.42Z" fill="white" fill-opacity="0.16"/>
<path d="M377.768 219.714L377.768 219.581L346.454 165.152C346.32 165.019 346.187 165.019 346.054 165.019C345.921 165.152 345.921 165.286 345.921 165.419L377.235 219.848C377.368 219.981 377.501 219.981 377.635 219.981C377.635 219.848 377.768 219.848 377.768 219.714Z" fill="white" fill-opacity="0.16"/>
<path d="M347.786 164.219C347.253 163.285 345.921 162.885 344.988 163.418C344.055 163.952 343.656 165.286 344.189 166.22C344.722 167.153 346.054 167.554 346.987 167.02C348.053 166.486 348.453 165.286 347.786 164.219Z" fill="white" fill-opacity="0.16"/>
<path d="M379.234 218.647C379.767 219.581 379.5 220.915 378.434 221.448C377.501 221.982 376.169 221.715 375.636 220.648C375.103 219.714 375.369 218.38 376.435 217.846C377.368 217.313 378.701 217.713 379.234 218.647Z" fill="white" fill-opacity="0.16"/>
<path d="M377.768 219.714C377.768 219.581 377.768 219.581 377.635 219.447C377.501 219.314 377.368 219.447 377.235 219.581L345.787 274.009C345.654 274.142 345.787 274.276 345.921 274.409C346.054 274.543 346.187 274.409 346.32 274.276L377.635 219.847L377.768 219.714Z" fill="white" fill-opacity="0.16"/>
<path d="M379.234 220.781C379.767 219.848 379.5 218.514 378.434 217.98C377.501 217.446 376.169 217.713 375.636 218.78C375.103 219.714 375.369 221.048 376.435 221.582C377.368 222.115 378.701 221.715 379.234 220.781Z" fill="white" fill-opacity="0.16"/>
<path d="M347.786 275.21C347.253 276.143 345.921 276.544 344.988 276.01C344.055 275.476 343.656 274.142 344.189 273.209C344.722 272.275 346.054 271.875 346.987 272.408C348.053 272.942 348.453 274.142 347.786 275.21Z" fill="white" fill-opacity="0.16"/>
<path d="M346.321 274.142C346.321 274.009 346.187 273.876 346.054 273.876L283.293 273.876C283.159 273.876 283.026 274.009 283.026 274.142C283.026 274.276 283.159 274.409 283.293 274.409L346.054 274.409C346.187 274.409 346.321 274.276 346.321 274.142Z" fill="white" fill-opacity="0.16"/>
<path d="M346.054 276.143C347.12 276.143 348.053 275.209 348.053 274.142C348.053 272.942 347.12 272.141 346.054 272.141C344.988 272.141 344.055 273.075 344.055 274.142C344.055 275.209 344.855 276.143 346.054 276.143Z" fill="white" fill-opacity="0.16"/>
<path d="M283.293 276.143C282.227 276.143 281.294 275.209 281.294 274.142C281.294 273.075 282.227 272.141 283.293 272.141C284.359 272.141 285.291 273.075 285.291 274.142C285.291 275.209 284.492 276.143 283.293 276.143Z" fill="white" fill-opacity="0.16"/>
<path d="M283.559 274.142L283.559 274.009L252.245 219.581C252.112 219.447 251.978 219.447 251.845 219.447C251.712 219.581 251.712 219.714 251.712 219.847L283.026 274.276C283.159 274.409 283.293 274.409 283.426 274.409C283.559 274.276 283.559 274.276 283.559 274.142Z" fill="white" fill-opacity="0.16"/>
<path d="M281.56 275.21C282.093 276.143 283.426 276.544 284.359 276.01C285.291 275.476 285.691 274.142 285.158 273.209C284.625 272.275 283.293 271.875 282.36 272.408C281.294 272.942 280.894 274.142 281.56 275.21Z" fill="white" fill-opacity="0.16"/>
<path d="M250.113 220.781C249.58 219.848 249.847 218.514 250.913 217.98C251.845 217.446 253.178 217.713 253.711 218.78C254.244 219.714 253.977 221.048 252.911 221.582C251.979 222.115 250.646 221.715 250.113 220.781Z" fill="white" fill-opacity="0.16"/>
<path d="M283.559 165.286C283.559 165.152 283.559 165.152 283.426 165.019C283.293 164.886 283.159 165.019 283.026 165.152L251.712 219.581C251.579 219.714 251.712 219.847 251.845 219.981C251.978 220.114 252.112 219.981 252.245 219.847L283.559 165.419C283.559 165.419 283.559 165.419 283.559 165.286Z" fill="white" fill-opacity="0.16"/>
<path d="M250.113 218.647C249.58 219.581 249.847 220.915 250.913 221.448C251.845 221.982 253.178 221.715 253.711 220.648C254.244 219.714 253.977 218.38 252.911 217.846C251.979 217.313 250.646 217.713 250.113 218.647Z" fill="white" fill-opacity="0.16"/>
<path d="M281.56 164.219C282.093 163.285 283.426 162.885 284.359 163.418C285.291 163.952 285.691 165.286 285.158 166.22C284.625 167.153 283.293 167.554 282.36 167.02C281.294 166.486 280.894 165.286 281.56 164.219Z" fill="white" fill-opacity="0.16"/>
<path d="M346.321 274.142C346.321 274.009 346.187 273.876 346.054 273.876L283.293 273.876C283.159 273.876 283.026 274.009 283.026 274.142C283.026 274.276 283.159 274.409 283.293 274.409L346.054 274.409C346.187 274.409 346.321 274.276 346.321 274.142Z" fill="white" fill-opacity="0.16"/>
<path d="M346.054 276.143C347.12 276.143 348.053 275.209 348.053 274.142C348.053 272.942 347.12 272.141 346.054 272.141C344.988 272.141 344.055 273.075 344.055 274.142C344.055 275.209 344.855 276.143 346.054 276.143Z" fill="white" fill-opacity="0.16"/>
<path d="M283.293 276.143C282.227 276.143 281.294 275.209 281.294 274.142C281.294 272.942 282.227 272.141 283.293 272.141C284.359 272.141 285.291 273.075 285.291 274.142C285.291 275.209 284.492 276.143 283.293 276.143Z" fill="white" fill-opacity="0.16"/>
<path d="M377.768 328.571L377.768 328.437L346.454 274.009C346.32 273.876 346.187 273.876 346.054 273.876C345.921 274.009 345.921 274.143 345.921 274.276L377.235 328.704C377.368 328.838 377.501 328.838 377.635 328.838C377.635 328.704 377.768 328.571 377.768 328.571Z" fill="white" fill-opacity="0.16"/>
<path d="M347.786 273.075C347.253 272.141 345.921 271.741 344.988 272.275C344.055 272.808 343.656 274.142 344.189 275.076C344.722 276.01 346.054 276.41 346.987 275.877C348.053 275.343 348.453 274.142 347.786 273.075Z" fill="white" fill-opacity="0.16"/>
<path d="M379.234 327.504C379.767 328.437 379.5 329.771 378.434 330.305C377.501 330.839 376.169 330.572 375.636 329.505C375.103 328.571 375.369 327.237 376.435 326.703C377.368 326.169 378.701 326.57 379.234 327.504Z" fill="white" fill-opacity="0.16"/>
<path d="M377.768 328.571C377.768 328.437 377.768 328.437 377.635 328.304C377.501 328.17 377.368 328.304 377.235 328.437L345.787 382.866C345.654 382.999 345.787 383.132 345.921 383.266C346.054 383.399 346.187 383.266 346.32 383.132L377.635 328.704C377.635 328.571 377.768 328.571 377.768 328.571Z" fill="white" fill-opacity="0.16"/>
<path d="M379.234 329.505C379.767 328.571 379.5 327.237 378.434 326.703C377.501 326.169 376.169 326.436 375.636 327.504C375.103 328.437 375.369 329.771 376.435 330.305C377.368 330.839 378.701 330.572 379.234 329.505Z" fill="white" fill-opacity="0.16"/>
<path d="M347.786 383.933C347.253 384.867 345.921 385.267 344.988 384.733C344.055 384.2 343.656 382.866 344.189 381.932C344.722 380.998 346.054 380.598 346.987 381.131C348.053 381.798 348.453 382.999 347.786 383.933Z" fill="white" fill-opacity="0.16"/>
<path d="M346.321 382.999C346.321 382.866 346.187 382.732 346.054 382.732L283.293 382.732C283.159 382.732 283.026 382.866 283.026 382.999C283.026 383.132 283.159 383.266 283.293 383.266L346.054 383.266C346.187 383.266 346.321 383.132 346.321 382.999Z" fill="white" fill-opacity="0.16"/>
<path d="M346.054 385C347.12 385 348.053 384.066 348.053 382.999C348.053 381.798 347.12 380.998 346.054 380.998C344.988 380.998 344.055 381.932 344.055 382.999C344.055 384.066 344.855 385 346.054 385Z" fill="white" fill-opacity="0.16"/>
<path d="M283.293 385C282.227 385 281.294 384.066 281.294 382.999C281.294 381.798 282.227 380.998 283.293 380.998C284.359 380.998 285.291 381.932 285.291 382.999C285.291 384.066 284.492 385 283.293 385Z" fill="white" fill-opacity="0.16"/>
<path d="M283.559 382.999L283.559 382.865L252.245 328.437C252.112 328.304 251.978 328.304 251.845 328.304C251.712 328.437 251.712 328.571 251.712 328.704L283.026 383.132C283.159 383.266 283.293 383.266 283.426 383.266C283.559 383.132 283.559 382.999 283.559 382.999Z" fill="white" fill-opacity="0.16"/>
<path d="M281.56 383.933C282.093 384.867 283.426 385.267 284.359 384.733C285.291 384.2 285.691 382.866 285.158 381.932C284.625 380.998 283.293 380.598 282.36 381.131C281.294 381.665 280.894 382.999 281.56 383.933Z" fill="white" fill-opacity="0.16"/>
<path d="M250.113 329.505C249.58 328.571 249.847 327.237 250.913 326.703C251.845 326.169 253.178 326.436 253.711 327.504C254.244 328.437 253.977 329.771 252.911 330.305C251.979 330.839 250.646 330.572 250.113 329.505Z" fill="white" fill-opacity="0.16"/>
<path d="M283.559 274.142C283.559 274.009 283.559 274.009 283.426 273.876C283.293 273.742 283.159 273.876 283.026 274.009L251.712 328.437C251.579 328.571 251.712 328.704 251.845 328.838C251.978 328.971 252.112 328.838 252.245 328.704L283.559 274.276L283.559 274.142Z" fill="white" fill-opacity="0.16"/>
<path d="M250.113 327.504C249.58 328.437 249.847 329.771 250.913 330.305C251.845 330.839 253.178 330.572 253.711 329.505C254.244 328.571 253.977 327.237 252.911 326.703C251.979 326.169 250.646 326.57 250.113 327.504Z" fill="white" fill-opacity="0.16"/>
<path d="M281.56 273.075C282.093 272.141 283.426 271.741 284.359 272.275C285.291 272.808 285.691 274.142 285.158 275.076C284.625 276.01 283.293 276.41 282.36 275.877C281.294 275.343 280.894 274.142 281.56 273.075Z" fill="white" fill-opacity="0.16"/>
<path d="M434 219.981L377.368 219.981C377.235 219.981 377.102 219.848 377.102 219.714C377.102 219.581 377.235 219.447 377.368 219.447L434 219.447L434 219.981Z" fill="white" fill-opacity="0.16"/>
<path d="M377.368 221.715C376.169 221.715 375.369 220.781 375.369 219.714C375.369 218.513 376.302 217.713 377.368 217.713C378.434 217.713 379.367 218.647 379.367 219.714C379.5 220.915 378.567 221.715 377.368 221.715Z" fill="white" fill-opacity="0.16"/>
<path d="M377.768 219.714L377.768 219.581L346.454 165.152C346.321 165.019 346.187 165.019 346.054 165.019C345.921 165.152 345.921 165.286 345.921 165.419L377.235 219.848C377.368 219.981 377.501 219.981 377.635 219.981C377.635 219.848 377.768 219.848 377.768 219.714Z" fill="white" fill-opacity="0.16"/>
<path d="M375.636 220.781C376.169 221.715 377.501 222.115 378.434 221.582C379.367 221.048 379.767 219.714 379.234 218.78C378.701 217.847 377.368 217.446 376.435 217.98C375.369 218.514 375.103 219.714 375.636 220.781Z" fill="white" fill-opacity="0.16"/>
<path d="M344.322 166.353C343.789 165.419 344.055 164.085 345.121 163.552C346.054 163.018 347.387 163.285 347.92 164.352C348.453 165.286 348.186 166.62 347.12 167.154C346.054 167.687 344.855 167.287 344.322 166.353Z" fill="white" fill-opacity="0.16"/>
<path d="M434 219.981L377.368 219.981C377.235 219.981 377.102 219.848 377.102 219.714C377.102 219.581 377.235 219.447 377.368 219.447L434 219.447L434 219.981Z" fill="white" fill-opacity="0.16"/>
<path d="M377.368 221.715C376.169 221.715 375.369 220.781 375.369 219.714C375.369 218.647 376.302 217.713 377.368 217.713C378.434 217.713 379.367 218.647 379.367 219.714C379.5 220.781 378.567 221.715 377.368 221.715Z" fill="white" fill-opacity="0.16"/>
<path d="M434 328.838L377.368 328.838C377.235 328.838 377.102 328.704 377.102 328.571C377.102 328.437 377.235 328.304 377.368 328.304L434 328.304L434 328.838Z" fill="white" fill-opacity="0.16"/>
<path d="M377.368 330.572C376.169 330.572 375.369 329.638 375.369 328.571C375.369 327.504 376.302 326.57 377.368 326.57C378.434 326.57 379.367 327.504 379.367 328.571C379.5 329.638 378.567 330.572 377.368 330.572Z" fill="white" fill-opacity="0.16"/>
<path d="M377.768 328.571L377.768 328.437L346.454 274.009C346.321 273.876 346.187 273.876 346.054 273.876C345.921 274.009 345.921 274.142 345.921 274.276L377.235 328.704C377.368 328.837 377.501 328.837 377.635 328.837C377.635 328.704 377.768 328.571 377.768 328.571Z" fill="white" fill-opacity="0.16"/>
<path d="M375.636 329.505C376.169 330.438 377.501 330.839 378.434 330.305C379.367 329.771 379.767 328.437 379.234 327.503C378.701 326.57 377.368 326.169 376.435 326.703C375.369 327.37 375.103 328.571 375.636 329.505Z" fill="white" fill-opacity="0.16"/>
<path d="M344.322 275.21C343.789 274.276 344.055 272.942 345.121 272.408C346.054 271.875 347.387 272.141 347.92 273.209C348.453 274.142 348.186 275.476 347.12 276.01C346.054 276.41 344.855 276.143 344.322 275.21Z" fill="white" fill-opacity="0.16"/>
<path d="M377.768 219.714C377.768 219.581 377.768 219.581 377.635 219.447C377.501 219.314 377.368 219.447 377.235 219.581L345.788 274.009C345.654 274.142 345.788 274.276 345.921 274.409C346.054 274.543 346.187 274.409 346.321 274.276L377.635 219.847L377.768 219.714Z" fill="white" fill-opacity="0.16"/>
<path d="M344.322 273.075C343.789 274.009 344.055 275.343 345.121 275.877C346.054 276.41 347.387 276.143 347.92 275.076C348.453 274.142 348.186 272.808 347.12 272.275C346.054 271.741 344.855 272.141 344.322 273.075Z" fill="white" fill-opacity="0.16"/>
<path d="M375.636 218.647C376.169 217.713 377.501 217.313 378.434 217.846C379.367 218.38 379.767 219.714 379.234 220.648C378.701 221.582 377.368 221.982 376.435 221.448C375.369 220.915 375.103 219.714 375.636 218.647Z" fill="white" fill-opacity="0.16"/>
</g>
<defs>
<clipPath id="clip0_72_29">
<rect width="385" height="434" fill="white" transform="matrix(1.19249e-08 -1 -1 -1.19249e-08 434 385)"/>
</clipPath>
</defs>
</svg>
