<svg width="20" height="20" viewBox="0 0 20 20" fill="none" xmlns="http://www.w3.org/2000/svg">
<g clip-path="url(#clip0_38_2586)">
<path d="M2.66571 0.0141602C1.19693 0.0141602 0.00107541 1.20978 0 2.67972C0 4.14965 1.19585 5.3455 2.66571 5.3455C4.13503 5.3455 5.33027 4.14965 5.33027 2.67972C5.33027 1.20994 4.13495 0.0141602 2.66571 0.0141602ZM4.66635 6.41653H0.664757C0.619477 6.41653 0.574642 6.42545 0.53281 6.44278C0.490979 6.46011 0.452971 6.48551 0.420958 6.51753C0.388944 6.54955 0.363552 6.58757 0.346231 6.6294C0.328911 6.67124 0.320001 6.71607 0.320011 6.76135V19.6413C0.320011 19.7327 0.356332 19.8204 0.420985 19.8851C0.485637 19.9497 0.573324 19.986 0.664757 19.986H4.66628C4.75771 19.986 4.84539 19.9497 4.91005 19.885C4.97471 19.8204 5.01106 19.7327 5.0111 19.6413V6.76135C5.01113 6.71607 5.00223 6.67122 4.98492 6.62938C4.96761 6.58753 4.94222 6.54951 4.9102 6.51749C4.87818 6.48546 4.84016 6.46006 4.79832 6.44274C4.75648 6.42542 4.71164 6.41651 4.66635 6.41653ZM14.8963 6.2649C13.4319 6.2649 12.145 6.71081 11.3597 7.43794V6.76135C11.3597 6.57085 11.2053 6.41653 11.0149 6.41653H7.17636C7.13108 6.41653 7.08624 6.42545 7.0444 6.44278C7.00257 6.46011 6.96455 6.48551 6.93253 6.51753C6.90051 6.54955 6.87511 6.58756 6.85778 6.6294C6.84046 6.67123 6.83154 6.71607 6.83154 6.76135V19.6413C6.83154 19.6866 6.84046 19.7314 6.85779 19.7732C6.87512 19.8151 6.90052 19.8531 6.93254 19.8851C6.96456 19.9171 7.00257 19.9425 7.04441 19.9598C7.08624 19.9771 7.13108 19.9861 7.17636 19.986H11.1741C11.2655 19.986 11.3532 19.9497 11.4179 19.885C11.4826 19.8204 11.5189 19.7327 11.5189 19.6413V13.269C11.5189 11.4406 11.8552 10.3074 13.5336 10.3074C15.1871 10.3094 15.3108 11.5246 15.3108 13.3782V19.6413C15.3108 19.6866 15.3198 19.7314 15.3371 19.7732C15.3544 19.8151 15.3799 19.8531 15.4119 19.8851C15.4439 19.9171 15.4819 19.9425 15.5238 19.9598C15.5656 19.9771 15.6104 19.9861 15.6557 19.986H19.6553C19.7468 19.986 19.8344 19.9497 19.8991 19.885C19.9637 19.8204 20.0001 19.7327 20.0001 19.6413V12.5761C20 9.63769 19.4199 6.2649 14.8963 6.2649Z" fill="#8B8D9C"/>
</g>
<defs>
<clipPath id="clip0_38_2586">
<rect width="20" height="20" fill="white"/>
</clipPath>
</defs>
</svg>
