<svg width="211" height="23" viewBox="0 0 211 23" fill="none" xmlns="http://www.w3.org/2000/svg">
<g clip-path="url(#clip0_2001_32)">
<path fill-rule="evenodd" clip-rule="evenodd" d="M10.0546 16.3925C10.0512 16.3708 10.05 16.3492 10.05 16.3275C10.05 16.2842 10.0558 16.2421 10.0674 16.2033C9.8809 16.0758 9.69788 15.9425 9.51834 15.8046C9.42799 15.8684 9.31679 15.906 9.19748 15.906C9.10944 15.906 9.02604 15.8855 8.95191 15.849C8.12949 16.6579 7.15301 17.3175 6.06301 17.7857C7.45533 17.5579 8.78511 17.0931 9.99905 16.4244L10.0546 16.3925ZM12.1767 10.6279C12.0968 10.9014 11.8408 11.1019 11.5373 11.1019C11.2373 12.5772 10.584 13.9317 9.66081 15.0687C9.71641 15.153 9.74885 15.2544 9.74885 15.3626C9.74885 15.4264 9.73726 15.4868 9.71757 15.5437C9.89596 15.6816 10.079 15.8137 10.2655 15.9402C10.3373 15.8946 10.423 15.8684 10.5157 15.8684C10.6153 15.8684 10.7068 15.8992 10.7821 15.9516C12.0748 15.1063 13.2076 14.0149 14.103 12.7196C14.3069 12.4256 14.4957 12.1238 14.6695 11.815C14.556 11.7 14.4865 11.5427 14.4865 11.3707C14.4865 11.3046 14.4969 11.242 14.5154 11.1827C13.7938 10.8364 12.9968 10.6427 12.1767 10.6279ZM3.56215 1.49811C4.11816 1.49811 4.56991 1.94242 4.56991 2.48925C4.56991 3.03608 4.11816 3.48038 3.56215 3.48038C3.00615 3.48038 2.5544 3.03608 2.5544 2.48925C2.5544 1.94242 3.00499 1.49811 3.56215 1.49811ZM2.74552 11.5803C3.30153 11.5803 3.75328 12.0246 3.75328 12.5715C3.75328 13.1183 3.30268 13.5626 2.74552 13.5626C2.18952 13.5626 1.73777 13.1183 1.73777 12.5715C1.73777 12.0246 2.18952 11.5803 2.74552 11.5803ZM5.77342 14.2234C6.13483 14.2234 6.42789 14.5116 6.42789 14.867C6.42789 15.2225 6.13483 15.5107 5.77342 15.5107C5.41202 15.5107 5.11896 15.2225 5.11896 14.867C5.11896 14.5116 5.41318 14.2234 5.77342 14.2234ZM2.82429 5.28493C3.22276 5.28493 3.54593 5.60277 3.54593 5.99467C3.54593 6.38657 3.22276 6.70441 2.82429 6.70441C2.42582 6.70441 2.10264 6.38657 2.10264 5.99467C2.10264 5.60277 2.42582 5.28493 2.82429 5.28493ZM1.01033 7.94048C1.56749 7.94048 2.0204 8.38478 2.0204 8.9339C2.0204 9.48187 1.56865 9.92731 1.01033 9.92731C0.453167 9.92731 0.000256465 9.48301 0.000256465 8.9339C0.000256465 8.38478 0.453167 7.94048 1.01033 7.94048ZM16.8066 13.6993C16.6317 13.623 16.5089 13.451 16.5089 13.2505C16.5089 13.1388 16.5471 13.0363 16.6109 12.9531C16.3143 12.5339 15.9622 12.1636 15.5683 11.8481C15.4537 11.9494 15.3008 12.011 15.1351 12.011C15.0703 12.011 15.0077 12.0019 14.9486 11.9836C14.7714 12.2958 14.5791 12.6022 14.3729 12.9018C13.4544 14.2325 12.2914 15.3535 10.9651 16.2204C10.9732 16.2546 10.9778 16.2899 10.9778 16.3264C10.9778 16.348 10.9767 16.3685 10.9732 16.3902C11.747 16.8425 12.574 17.2093 13.4405 17.4804C13.5297 17.3973 13.6501 17.346 13.7833 17.346C13.8957 17.346 13.9988 17.3825 14.0822 17.444C14.871 16.266 15.924 15.1268 16.8066 13.6993ZM17.9765 11.2101C17.7703 11.1497 17.6198 10.9617 17.6198 10.7396C17.6198 10.5664 17.7113 10.4149 17.8491 10.3272C17.7808 10.0583 17.702 9.79174 17.614 9.52858C17.3499 8.73909 17.0001 7.97694 16.568 7.2558C16.5332 7.26834 16.4962 7.27859 16.4591 7.28542C16.4464 7.40618 16.4313 7.52808 16.4151 7.64884C16.2657 8.74706 15.9645 9.82478 15.5151 10.8512C15.6795 10.9674 15.7861 11.1565 15.7861 11.3707C15.7861 11.4425 15.7745 11.512 15.7514 11.5769C16.1799 11.9164 16.5634 12.3186 16.8854 12.7743C16.9248 12.764 16.9653 12.7594 17.0082 12.7594C17.1124 12.7594 17.2097 12.7913 17.2908 12.8449C17.4808 12.4769 17.6568 12.0896 17.8121 11.6772C17.8688 11.5211 17.9244 11.365 17.9765 11.2101ZM15.1768 2.029C15.2 1.95836 15.2405 1.89571 15.2903 1.8433C13.4127 0.724574 10.6998 0.0991343 7.49472 1.19166C7.50398 1.21786 7.51093 1.24634 7.51672 1.27482C8.96349 1.40584 10.3616 1.78976 11.6508 2.39811C11.7806 2.45963 11.9103 2.52342 12.0377 2.5895C12.1512 2.48013 12.3065 2.41292 12.4779 2.41292C12.6806 2.41292 12.8613 2.50748 12.976 2.6533C13.6826 2.38558 14.4193 2.17482 15.1768 2.029ZM15.7097 2.67153C15.69 2.6738 15.6703 2.67494 15.6506 2.67494C15.4375 2.67494 15.2556 2.54279 15.1838 2.35824C14.4679 2.4995 13.7706 2.69887 13.1011 2.95292C13.1046 2.97912 13.1057 3.00532 13.1057 3.03152C13.1057 3.08848 13.0976 3.14431 13.0825 3.19671C13.9779 3.77772 14.7992 4.47721 15.5185 5.28379C15.705 5.49341 15.8846 5.70758 16.0548 5.9286C16.1 5.91151 16.1464 5.89784 16.195 5.88986C16.1834 4.80987 16.0236 3.72646 15.7097 2.67153ZM16.1012 2.39469C16.078 2.44368 16.0467 2.48811 16.0085 2.5257C16.3433 3.63418 16.5147 4.77227 16.5251 5.90581C16.8251 5.99239 17.0452 6.26467 17.0452 6.58821C17.0452 6.77846 16.9688 6.95163 16.8448 7.07922C17.2931 7.82314 17.6557 8.61149 17.929 9.42832C18.0194 9.69946 18.1005 9.97402 18.1711 10.252C18.2001 10.2554 18.2279 10.26 18.2557 10.2679C19.0121 7.27061 18.4827 4.53873 16.6039 2.81621C16.4464 2.67266 16.2796 2.5314 16.1012 2.39469ZM10.6176 16.7718C10.489 17.7755 10.6292 18.7769 10.9987 19.6871C11.3404 20.5267 11.8779 21.2889 12.5833 21.9029C12.6273 21.8767 12.6737 21.8574 12.7235 21.8426C12.5057 20.4379 12.9818 19.3146 13.5679 18.2802C13.3988 18.2016 13.2829 18.0318 13.2829 17.837C13.2829 17.8154 13.2841 17.7937 13.2876 17.7732C12.4211 17.4975 11.5918 17.1273 10.8134 16.675C10.7589 16.7206 10.6917 16.7547 10.6176 16.7718ZM12.3586 22.1399C11.6172 21.4928 11.0531 20.6908 10.6941 19.8079C10.3025 18.8464 10.1566 17.788 10.2921 16.7274C10.2643 16.7126 10.2388 16.6955 10.2157 16.6761L10.1612 16.7069C8.69939 17.5135 7.07192 18.0295 5.37032 18.205C5.34831 18.3474 5.28229 18.4761 5.1873 18.5775C6.8333 20.7705 9.52181 22.2504 12.3041 22.2948C12.3146 22.239 12.3331 22.1877 12.3586 22.1399ZM10.3141 5.05936C10.2342 5.08898 10.1473 5.10607 10.0558 5.10607C9.88669 5.10607 9.73031 5.04911 9.60753 4.95227C8.10748 6.15986 6.88659 7.70352 6.06532 9.48642C6.2912 9.62541 6.44178 9.87149 6.44178 10.1529C6.44178 10.4377 6.28773 10.686 6.05722 10.8239C6.72326 12.3949 7.71364 13.7699 8.93337 14.8864C9.01214 14.8442 9.10133 14.8203 9.19632 14.8203C9.27045 14.8203 9.34111 14.8351 9.40598 14.8613C10.2979 13.7608 10.9292 12.4496 11.2165 11.0221C11.008 10.9105 10.8678 10.694 10.8678 10.4445C10.8678 10.1369 11.0844 9.87718 11.3752 9.80769C11.469 8.24124 11.1412 6.70555 10.4612 5.34075C10.4137 5.24619 10.3639 5.15278 10.3141 5.05936ZM10.0558 3.68316C10.2469 3.68316 10.4195 3.75608 10.5493 3.87456C10.9697 3.6057 11.4064 3.35962 11.8582 3.13861C11.8524 3.10443 11.8489 3.06798 11.8489 3.03266C11.8489 2.9757 11.857 2.92216 11.8709 2.86975C11.7516 2.80823 11.6311 2.74899 11.5095 2.69089C10.284 2.11216 8.95654 1.74305 7.58275 1.60748C8.45961 2.19191 9.21601 2.90849 9.8334 3.71734C9.90291 3.69456 9.9782 3.68316 10.0558 3.68316ZM7.18196 4.13772H9.38049C9.41872 4.04202 9.47664 3.95658 9.54961 3.88595C8.94264 3.09532 8.19783 2.39811 7.33371 1.83305C7.22019 1.94014 7.06729 2.00621 6.89701 2.00621C6.54951 2.00621 6.26803 1.72938 6.26803 1.38761C6.26803 1.04584 6.54951 0.769004 6.89701 0.769004C7.09856 0.769004 7.27695 0.861282 7.39162 1.00596C8.82333 0.332677 13.4115 -1.37276 17.3788 2.16571C18.7376 3.37557 19.6967 5.20063 20.2619 7.63175C20.3222 10.0287 21.6531 10.6405 22.4222 11.2955C23.2783 12.0246 23.2215 12.5191 21.9994 13.0272C21.2384 13.3735 21.133 13.7483 21.6844 14.1493C21.9994 14.2815 22.0736 14.4854 21.9079 14.7588C21.36 15.0869 21.2593 15.3034 21.6068 15.407C21.7817 15.4617 21.894 15.7796 21.5558 15.9482C20.7322 16.3606 21.2836 16.9655 21.3693 17.6525C21.5373 18.9945 20.4403 19.5971 18.075 19.4604C16.1104 19.3465 13.8517 19.6473 13.2273 21.9189C13.3872 22.0248 13.4938 22.2048 13.4938 22.4099C13.4938 22.7357 13.225 23 12.8937 23C12.632 23 12.4096 22.8348 12.3273 22.6047C10.8782 22.5569 9.47779 22.1877 8.22331 21.5464C6.93524 20.8879 5.79891 19.94 4.91625 18.7587C4.83517 18.7894 4.74829 18.8054 4.65678 18.8054C4.25831 18.8054 3.93398 18.4875 3.93398 18.0945C3.93398 17.7026 4.25716 17.3836 4.65678 17.3836C4.9232 17.3836 5.15603 17.526 5.28113 17.7368C6.59353 17.2879 7.76229 16.5577 8.71561 15.6223C8.67275 15.5449 8.64842 15.456 8.64842 15.3626C8.64842 15.276 8.66927 15.1928 8.70634 15.1199C7.4507 13.9693 6.43136 12.551 5.74678 10.931C5.71319 10.9355 5.67844 10.9378 5.64369 10.9378C5.20352 10.9378 4.84559 10.5858 4.84559 10.1529C4.84559 9.71997 5.20352 9.36794 5.64369 9.36794C5.68076 9.36794 5.71782 9.37022 5.75373 9.37592C6.597 7.53492 7.85496 5.94227 9.40134 4.69822C9.36544 4.62303 9.34227 4.54101 9.33416 4.45443H7.18891C7.12057 4.77797 6.83099 5.02063 6.48233 5.02063C6.08386 5.02063 5.76068 4.70278 5.76068 4.31088C5.76068 3.91899 6.08386 3.60114 6.48233 3.60114C6.8194 3.6 7.1032 3.82899 7.18196 4.13772ZM12.1872 10.3044C13.0663 10.3203 13.92 10.53 14.688 10.907C14.8038 10.7977 14.9614 10.7316 15.1351 10.7316C15.1595 10.7316 15.1838 10.7327 15.2081 10.735C15.6471 9.73136 15.9425 8.67871 16.0884 7.60555C16.1035 7.49504 16.1174 7.3834 16.129 7.27289C15.8232 7.18973 15.5996 6.91517 15.5996 6.58821C15.5996 6.40593 15.6703 6.23847 15.785 6.11315C15.6216 5.90239 15.4502 5.69733 15.2718 5.49683C14.5745 4.71645 13.7822 4.03861 12.9169 3.47582C12.8034 3.58405 12.6493 3.65127 12.4779 3.65127C12.2856 3.65127 12.113 3.56696 11.9983 3.43253C11.5628 3.64671 11.14 3.88367 10.7334 4.14455C10.7636 4.22316 10.7798 4.30747 10.7798 4.39633C10.7798 4.58202 10.7068 4.75177 10.5886 4.87822C10.6466 4.98417 10.7033 5.0924 10.7578 5.20062C11.4609 6.60986 11.8003 8.19453 11.7064 9.81224C11.9451 9.87262 12.1327 10.064 12.1872 10.3044Z" fill="#FAFAFA" fill-opacity="0.9"/>
</g>
<path d="M43.5656 6.09565C43.7943 6.09565 43.9826 6.1658 44.1306 6.30609C44.2921 6.44638 44.3728 6.62493 44.3728 6.84174C44.3728 7.0458 44.2921 7.22435 44.1306 7.37739C43.9826 7.51768 43.7943 7.58783 43.5656 7.58783H40.034V16.0052C40.034 16.222 39.96 16.4006 39.812 16.5409C39.664 16.6812 39.4756 16.7513 39.2469 16.7513C39.0182 16.7513 38.8299 16.6812 38.6819 16.5409C38.5339 16.4006 38.4599 16.222 38.4599 16.0052V7.58783H34.787C34.5718 7.58783 34.3834 7.51768 34.222 7.37739C34.074 7.22435 34 7.0458 34 6.84174C34 6.62493 34.074 6.44638 34.222 6.30609C34.3834 6.1658 34.5718 6.09565 34.787 6.09565H43.5656Z" fill="#FAFAFA" fill-opacity="0.9"/>
<path d="M55.0904 15.6035C55.1846 15.731 55.2316 15.8649 55.2316 16.0052C55.2451 16.1455 55.2182 16.2794 55.1509 16.407C55.0971 16.5217 55.0097 16.6174 54.8886 16.6939C54.7675 16.7704 54.6262 16.8087 54.4648 16.8087C54.2092 16.8087 54.0074 16.7067 53.8594 16.5026L50.2269 12.0452H47.4621V16.0435C47.4621 16.2348 47.3881 16.4006 47.2402 16.5409C47.0922 16.6812 46.9105 16.7513 46.6953 16.7513C46.48 16.7513 46.2984 16.6812 46.1504 16.5409C46.0159 16.4006 45.9486 16.2348 45.9486 16.0435V12.0452H45.9284V6H52.366C52.81 6 53.2203 6.0829 53.597 6.2487C53.9872 6.40174 54.3235 6.61855 54.606 6.89913C54.902 7.16696 55.1307 7.4858 55.2922 7.85565C55.4671 8.21275 55.5545 8.60174 55.5545 9.02261C55.5545 9.44348 55.4671 9.83884 55.2922 10.2087C55.1173 10.5658 54.8818 10.8783 54.5859 11.1461C54.2899 11.4139 53.9468 11.6307 53.5567 11.7965C53.18 11.9496 52.7696 12.0261 52.3256 12.0261H52.1844L55.0904 15.6035ZM52.3458 10.5722C52.8033 10.5722 53.1867 10.4255 53.4961 10.1322C53.819 9.82609 53.9804 9.45623 53.9804 9.02261C53.9804 8.58899 53.819 8.22551 53.4961 7.93217C53.1867 7.62609 52.8033 7.47304 52.3458 7.47304H47.4823V10.5722H52.3458Z" fill="#FAFAFA" fill-opacity="0.9"/>
<path d="M68.2698 15.967C68.3775 16.222 68.3438 16.458 68.1689 16.6748C68.0075 16.8916 67.7922 17 67.5232 17C67.1734 17 66.9312 16.8406 66.7967 16.5217L63.3861 8.16174C63.2785 7.90667 63.0902 7.77913 62.8211 7.77913C62.5386 7.77913 62.3435 7.90029 62.2359 8.14261L58.1594 16.56C58.0249 16.8406 57.7894 16.9809 57.4531 16.9809C57.1571 16.9809 56.9284 16.8725 56.7669 16.6557C56.6189 16.4261 56.6055 16.1838 56.7266 15.9287L60.803 7.5113C60.9914 7.11594 61.2672 6.80985 61.6304 6.59304C61.9937 6.36348 62.404 6.25507 62.8615 6.26783C63.3189 6.28058 63.7225 6.40174 64.0723 6.6313C64.4355 6.86087 64.7046 7.17971 64.8795 7.58783V7.60696L68.3102 15.967H68.2698Z" fill="#FAFAFA" fill-opacity="0.9"/>
<path d="M70.8168 6.09565C71.0455 6.09565 71.2339 6.1658 71.3819 6.30609C71.5433 6.44638 71.6241 6.62493 71.6241 6.84174V16.0052C71.6241 16.222 71.5433 16.4006 71.3819 16.5409C71.2339 16.6812 71.0455 16.7513 70.8168 16.7513C70.6016 16.7513 70.4132 16.6812 70.2518 16.5409C70.1038 16.4006 70.0298 16.222 70.0298 16.0052V6.84174C70.0298 6.62493 70.1038 6.44638 70.2518 6.30609C70.4132 6.1658 70.6016 6.09565 70.8168 6.09565Z" fill="#FAFAFA" fill-opacity="0.9"/>
<path d="M83.6734 6.01913C83.9021 6.01913 84.0905 6.09565 84.2385 6.2487C84.3999 6.38899 84.4806 6.56754 84.4806 6.78435V15.8713C84.4806 16.1136 84.3932 16.3241 84.2183 16.5026C84.0434 16.6812 83.8214 16.7832 83.5523 16.8087C83.4043 16.8087 83.2563 16.7832 83.1083 16.7322C82.9738 16.6684 82.8594 16.5791 82.7653 16.4643L75.7626 8.21913V16.0435C75.7626 16.2603 75.6819 16.4452 75.5205 16.5983C75.3725 16.7386 75.1841 16.8087 74.9554 16.8087C74.7402 16.7959 74.5585 16.7194 74.4105 16.5791C74.2625 16.4261 74.1886 16.2475 74.1886 16.0435V7.16696C74.1886 6.86087 74.3029 6.59304 74.5316 6.36348C74.7738 6.13391 75.063 6.01913 75.3994 6.01913C75.7895 6.01913 76.1057 6.1658 76.3479 6.45913L82.8864 14.1878V6.76522C82.8864 6.54841 82.9604 6.36986 83.1083 6.22957C83.2698 6.08928 83.4581 6.01913 83.6734 6.01913Z" fill="#FAFAFA" fill-opacity="0.9"/>
<path d="M101.323 6.07652C101.74 6.07652 102.137 6.15304 102.513 6.30609C102.89 6.45913 103.213 6.66957 103.482 6.93739C103.765 7.19246 103.987 7.49855 104.148 7.85565C104.309 8.2 104.39 8.56985 104.39 8.96522V13.8626C104.39 14.258 104.309 14.6342 104.148 14.9913C103.987 15.3357 103.765 15.6417 103.482 15.9096C103.213 16.1646 102.89 16.3687 102.513 16.5217C102.137 16.6748 101.74 16.7513 101.323 16.7513H95.9143C95.4972 16.7513 95.1003 16.6748 94.7236 16.5217C94.3604 16.3687 94.0375 16.1646 93.755 15.9096C93.4859 15.6417 93.2707 15.3357 93.1092 14.9913C92.9478 14.6342 92.867 14.258 92.867 13.8626V8.96522C92.867 8.56985 92.9478 8.2 93.1092 7.85565C93.2707 7.49855 93.4859 7.19246 93.755 6.93739C94.0375 6.66957 94.3604 6.45913 94.7236 6.30609C95.1003 6.15304 95.4972 6.07652 95.9143 6.07652H101.323ZM102.776 8.96522C102.776 8.58261 102.634 8.25739 102.352 7.98957C102.069 7.70899 101.726 7.5687 101.323 7.5687H95.9143C95.5107 7.5687 95.1609 7.70899 94.8649 7.98957C94.5824 8.25739 94.4411 8.58261 94.4411 8.96522V13.8626C94.4411 14.2452 94.5824 14.5768 94.8649 14.8574C95.1609 15.1252 95.5107 15.2591 95.9143 15.2591H101.323C101.726 15.2591 102.069 15.1252 102.352 14.8574C102.634 14.5768 102.776 14.2452 102.776 13.8626V8.96522Z" fill="#FAFAFA" fill-opacity="0.9"/>
<path d="M116.209 10.687C116.438 10.687 116.626 10.7571 116.774 10.8974C116.922 11.0377 116.996 11.2162 116.996 11.433C116.996 11.6371 116.922 11.8157 116.774 11.9687C116.626 12.109 116.438 12.1791 116.209 12.1791H108.278V16.0052C108.278 16.222 108.197 16.4006 108.036 16.5409C107.888 16.6812 107.7 16.7513 107.471 16.7513C107.256 16.7513 107.067 16.6812 106.906 16.5409C106.758 16.4006 106.684 16.222 106.684 16.0052V9.3287C106.684 8.88232 106.771 8.46783 106.946 8.08522C107.135 7.68985 107.384 7.34551 107.693 7.05217C108.016 6.75884 108.386 6.52928 108.803 6.36348C109.22 6.18493 109.671 6.09565 110.155 6.09565H116.189C116.418 6.09565 116.606 6.1658 116.754 6.30609C116.915 6.44638 116.996 6.62493 116.996 6.84174C116.996 7.0458 116.915 7.22435 116.754 7.37739C116.606 7.51768 116.418 7.58783 116.189 7.58783H110.155C109.886 7.58783 109.637 7.63246 109.408 7.72174C109.18 7.81101 108.978 7.93855 108.803 8.10435C108.641 8.25739 108.507 8.44232 108.399 8.65913C108.305 8.86319 108.258 9.08638 108.258 9.3287V10.687H116.189H116.209Z" fill="#FAFAFA" fill-opacity="0.9"/>
<path d="M133.373 6.09565C133.602 6.09565 133.79 6.1658 133.938 6.30609C134.086 6.44638 134.16 6.62493 134.16 6.84174C134.16 7.0458 134.086 7.22435 133.938 7.37739C133.79 7.51768 133.602 7.58783 133.373 7.58783H129.842V16.0052C129.842 16.222 129.761 16.4006 129.6 16.5409C129.452 16.6812 129.27 16.7513 129.055 16.7513C128.826 16.7513 128.638 16.6812 128.49 16.5409C128.342 16.4006 128.268 16.222 128.268 16.0052V7.58783H124.595C124.366 7.58783 124.178 7.51768 124.03 7.37739C123.882 7.22435 123.808 7.0458 123.808 6.84174C123.808 6.62493 123.882 6.44638 124.03 6.30609C124.178 6.1658 124.366 6.09565 124.595 6.09565H133.373Z" fill="#FAFAFA" fill-opacity="0.9"/>
<path d="M145.281 6.09565C145.51 6.09565 145.698 6.1658 145.846 6.30609C146.008 6.44638 146.088 6.62493 146.088 6.84174V16.0052C146.088 16.222 146.008 16.4006 145.846 16.5409C145.698 16.6812 145.51 16.7513 145.281 16.7513C145.066 16.7513 144.877 16.6812 144.716 16.5409C144.568 16.4006 144.494 16.222 144.494 16.0052V12.1791H137.29V16.0052C137.29 16.222 137.209 16.4006 137.047 16.5409C136.899 16.6812 136.711 16.7513 136.482 16.7513C136.267 16.7513 136.079 16.6812 135.917 16.5409C135.769 16.4006 135.695 16.222 135.695 16.0052V6.84174C135.695 6.62493 135.769 6.44638 135.917 6.30609C136.079 6.1658 136.267 6.09565 136.482 6.09565C136.711 6.09565 136.899 6.1658 137.047 6.30609C137.209 6.44638 137.29 6.62493 137.29 6.84174V10.687H144.494V6.84174C144.494 6.62493 144.568 6.44638 144.716 6.30609C144.877 6.1658 145.066 6.09565 145.281 6.09565Z" fill="#FAFAFA" fill-opacity="0.9"/>
<path d="M156.918 6.07652C157.335 6.07652 157.732 6.15304 158.108 6.30609C158.485 6.45913 158.808 6.66957 159.077 6.93739C159.359 7.19246 159.581 7.49855 159.743 7.85565C159.904 8.2 159.985 8.56985 159.985 8.96522V13.8626C159.985 14.258 159.904 14.6342 159.743 14.9913C159.581 15.3357 159.359 15.6417 159.077 15.9096C158.808 16.1646 158.485 16.3687 158.108 16.5217C157.732 16.6748 157.335 16.7513 156.918 16.7513H151.509C151.092 16.7513 150.695 16.6748 150.319 16.5217C149.955 16.3687 149.632 16.1646 149.35 15.9096C149.081 15.6417 148.866 15.3357 148.704 14.9913C148.543 14.6342 148.462 14.258 148.462 13.8626V8.96522C148.462 8.56985 148.543 8.2 148.704 7.85565C148.866 7.49855 149.081 7.19246 149.35 6.93739C149.632 6.66957 149.955 6.45913 150.319 6.30609C150.695 6.15304 151.092 6.07652 151.509 6.07652H156.918ZM158.371 8.96522C158.371 8.58261 158.229 8.25739 157.947 7.98957C157.664 7.70899 157.321 7.5687 156.918 7.5687H151.509C151.106 7.5687 150.756 7.70899 150.46 7.98957C150.177 8.25739 150.036 8.58261 150.036 8.96522V13.8626C150.036 14.2452 150.177 14.5768 150.46 14.8574C150.756 15.1252 151.106 15.2591 151.509 15.2591H156.918C157.321 15.2591 157.664 15.1252 157.947 14.8574C158.229 14.5768 158.371 14.2452 158.371 13.8626V8.96522Z" fill="#FAFAFA" fill-opacity="0.9"/>
<path d="M172.954 6.01913C173.183 6.01913 173.371 6.08928 173.519 6.22957C173.667 6.36986 173.741 6.54841 173.741 6.76522V13.8626C173.741 14.258 173.661 14.6342 173.499 14.9913C173.338 15.3357 173.123 15.6354 172.853 15.8904C172.584 16.1455 172.262 16.3496 171.885 16.5026C171.522 16.6557 171.131 16.7322 170.714 16.7322H165.306C164.889 16.7322 164.492 16.6557 164.115 16.5026C163.752 16.3496 163.429 16.1455 163.147 15.8904C162.878 15.6354 162.662 15.3357 162.501 14.9913C162.339 14.6342 162.259 14.258 162.259 13.8626V6.76522C162.259 6.54841 162.333 6.36986 162.481 6.22957C162.642 6.08928 162.837 6.01913 163.066 6.01913C163.281 6.01913 163.463 6.08928 163.611 6.22957C163.772 6.36986 163.853 6.54841 163.853 6.76522V13.8626C163.853 14.2452 163.994 14.5768 164.277 14.8574C164.573 15.1252 164.923 15.2591 165.326 15.2591H170.735C171.138 15.2591 171.481 15.1252 171.764 14.8574C172.046 14.5768 172.188 14.2452 172.188 13.8626V6.76522C172.188 6.54841 172.262 6.36986 172.41 6.22957C172.571 6.08928 172.766 6.01913 172.995 6.01913H172.954Z" fill="#FAFAFA" fill-opacity="0.9"/>
<path d="M181.722 11.433C181.722 11.2162 181.796 11.0377 181.944 10.8974C182.092 10.7571 182.28 10.687 182.509 10.687H186.323V16.7704H179.542C179.058 16.7704 178.607 16.6875 178.19 16.5217C177.773 16.3432 177.403 16.1072 177.08 15.8139C176.771 15.5206 176.522 15.1762 176.334 14.7809C176.159 14.3855 176.071 13.9646 176.071 13.5183V9.34783C176.071 8.90145 176.159 8.48058 176.334 8.08522C176.522 7.68985 176.771 7.34551 177.08 7.05217C177.403 6.75884 177.773 6.52928 178.19 6.36348C178.607 6.18493 179.058 6.09565 179.542 6.09565H185.576C185.805 6.09565 185.993 6.17217 186.141 6.32522C186.289 6.46551 186.363 6.64406 186.363 6.86087C186.363 7.06493 186.289 7.24348 186.141 7.39652C185.993 7.53681 185.805 7.60696 185.576 7.60696H179.542C179.273 7.60696 179.024 7.65159 178.796 7.74087C178.567 7.83014 178.365 7.95768 178.19 8.12348C178.015 8.27652 177.874 8.46145 177.766 8.67826C177.672 8.88232 177.625 9.10551 177.625 9.34783V13.5183C177.625 13.7606 177.672 13.9901 177.766 14.207C177.874 14.4238 178.015 14.6151 178.19 14.7809C178.365 14.9339 178.567 15.0551 178.796 15.1443C179.024 15.2336 179.273 15.2783 179.542 15.2783H184.729V12.1791H182.509C182.28 12.1791 182.092 12.109 181.944 11.9687C181.796 11.8157 181.722 11.6371 181.722 11.433Z" fill="#FAFAFA" fill-opacity="0.9"/>
<path d="M198.314 6.09565C198.543 6.09565 198.731 6.1658 198.879 6.30609C199.041 6.44638 199.121 6.62493 199.121 6.84174V16.0052C199.121 16.222 199.041 16.4006 198.879 16.5409C198.731 16.6812 198.543 16.7513 198.314 16.7513C198.099 16.7513 197.91 16.6812 197.749 16.5409C197.601 16.4006 197.527 16.222 197.527 16.0052V12.1791H190.323V16.0052C190.323 16.222 190.242 16.4006 190.08 16.5409C189.932 16.6812 189.744 16.7513 189.515 16.7513C189.3 16.7513 189.112 16.6812 188.95 16.5409C188.802 16.4006 188.728 16.222 188.728 16.0052V6.84174C188.728 6.62493 188.802 6.44638 188.95 6.30609C189.112 6.1658 189.3 6.09565 189.515 6.09565C189.744 6.09565 189.932 6.1658 190.08 6.30609C190.242 6.44638 190.323 6.62493 190.323 6.84174V10.687H197.527V6.84174C197.527 6.62493 197.601 6.44638 197.749 6.30609C197.91 6.1658 198.099 6.09565 198.314 6.09565Z" fill="#FAFAFA" fill-opacity="0.9"/>
<path d="M210.213 6.09565C210.442 6.09565 210.63 6.1658 210.778 6.30609C210.926 6.44638 211 6.62493 211 6.84174C211 7.0458 210.926 7.22435 210.778 7.37739C210.63 7.51768 210.442 7.58783 210.213 7.58783H206.681V16.0052C206.681 16.222 206.601 16.4006 206.439 16.5409C206.291 16.6812 206.11 16.7513 205.894 16.7513C205.666 16.7513 205.477 16.6812 205.329 16.5409C205.181 16.4006 205.107 16.222 205.107 16.0052V7.58783H201.434C201.206 7.58783 201.017 7.51768 200.869 7.37739C200.721 7.22435 200.647 7.0458 200.647 6.84174C200.647 6.62493 200.721 6.44638 200.869 6.30609C201.017 6.1658 201.206 6.09565 201.434 6.09565H210.213Z" fill="#FAFAFA" fill-opacity="0.9"/>
<defs>
<clipPath id="clip0_2001_32">
<rect width="23" height="23" fill="white" transform="matrix(-1 0 0 1 23 0)"/>
</clipPath>
</defs>
</svg>
