<svg width="434" height="385" viewBox="0 0 434 385" fill="none" xmlns="http://www.w3.org/2000/svg">
<g clip-path="url(#clip0_72_933)">
<path d="M434 0.266787C433.067 -0.133421 431.868 0.133392 431.335 1.06721C430.802 2.00103 431.068 3.33502 432.134 3.86863C432.8 4.26884 433.467 4.26885 434 4.00204L434 0.266787Z" fill="white" fill-opacity="0.16"/>
<path d="M434 0.266706C433.467 -9.94446e-05 432.667 -9.13047e-05 432.134 0.400117C431.202 0.933727 430.802 2.26772 431.335 3.20154C431.868 4.13536 433.067 4.53557 434 4.00196L434 0.266706Z" fill="white" fill-opacity="0.16"/>
<path d="M434 109.123C433.067 108.723 431.868 108.99 431.335 109.924C430.802 110.857 431.068 112.191 432.134 112.725C432.8 113.125 433.467 113.125 434 112.858L434 109.123Z" fill="white" fill-opacity="0.16"/>
<path d="M434 109.123C433.467 108.856 432.667 108.856 432.134 109.257C431.202 109.79 430.802 111.124 431.335 112.058C431.868 112.992 433.067 113.392 434 112.858L434 109.123Z" fill="white" fill-opacity="0.16"/>
<path d="M434 217.846C433.067 217.446 431.868 217.713 431.335 218.647C430.802 219.581 431.068 220.915 432.134 221.448C432.8 221.848 433.467 221.848 434 221.582L434 217.846Z" fill="white" fill-opacity="0.16"/>
<path d="M434 217.847C433.467 217.58 432.667 217.58 432.134 217.98C431.202 218.514 430.802 219.848 431.335 220.781C431.868 221.715 433.067 222.115 434 221.582L434 217.847Z" fill="white" fill-opacity="0.16"/>
<path d="M434 326.703C433.067 326.303 431.868 326.569 431.335 327.503C430.802 328.437 431.068 329.771 432.134 330.305C432.8 330.705 433.467 330.705 434 330.438L434 326.703Z" fill="white" fill-opacity="0.16"/>
<path d="M370.039 2.13455C370.039 2.00114 370.173 1.86772 370.306 1.86772L433.067 1.86772C433.2 1.86772 433.334 2.00114 433.334 2.13454C433.334 2.26795 433.2 2.40137 433.067 2.40137L370.306 2.40137C370.173 2.40137 370.039 2.26795 370.039 2.13455Z" fill="white" fill-opacity="0.16"/>
<path d="M370.306 4.1355C369.24 4.1355 368.307 3.20168 368.307 2.13446C368.307 1.06724 369.24 0.133419 370.306 0.133419C371.372 0.133419 372.305 1.06724 372.305 2.13446C372.438 3.20168 371.505 4.1355 370.306 4.1355Z" fill="white" fill-opacity="0.16"/>
<path d="M434 0.266695C433.734 0.133293 433.467 -0.000126271 433.067 -0.000126266C432.001 -0.000126254 431.068 0.933692 431.068 2.00091C431.068 3.06813 432.001 4.00195 433.067 4.00195C433.334 4.00195 433.734 3.86857 434 3.73517L434 0.266695Z" fill="white" fill-opacity="0.16"/>
<path d="M434 0.266787C433.067 -0.133421 431.868 0.133392 431.335 1.06721C430.802 2.00103 431.068 3.33502 432.134 3.86863C432.8 4.26884 433.467 4.26885 434 4.00204L434 0.266787Z" fill="white" fill-opacity="0.16"/>
<path d="M370.039 2.13455C370.039 2.00114 370.173 1.86772 370.306 1.86772L433.067 1.86772C433.2 1.86772 433.334 2.00114 433.334 2.13454C433.334 2.26795 433.2 2.40137 433.067 2.40137L370.306 2.40137C370.173 2.40137 370.039 2.26795 370.039 2.13455Z" fill="white" fill-opacity="0.16"/>
<path d="M370.306 4.1355C369.107 4.1355 368.307 3.20168 368.307 2.13446C368.307 1.06724 369.24 0.133419 370.306 0.133419C371.372 0.133419 372.305 1.06724 372.305 2.13446C372.438 3.20168 371.505 4.1355 370.306 4.1355Z" fill="white" fill-opacity="0.16"/>
<path d="M434 0.266695C433.734 0.133293 433.467 -0.000126271 433.067 -0.000126266C432.001 -0.000126254 431.068 0.933692 431.068 2.00091C431.068 3.20154 432.001 4.00195 433.067 4.00195C433.334 4.00195 433.734 3.86857 434 3.73517L434 0.266695Z" fill="white" fill-opacity="0.16"/>
<path d="M338.725 56.5628L338.725 56.4294L370.039 2.00109C370.173 1.86769 370.306 1.86768 370.439 1.86768C370.572 2.00108 370.572 2.13451 370.572 2.26791L339.258 56.6962C339.125 56.8296 338.992 56.8296 338.858 56.8296C338.725 56.6962 338.725 56.5628 338.725 56.5628Z" fill="white" fill-opacity="0.16"/>
<path d="M368.574 1.06723C369.107 0.133412 370.439 -0.266804 371.372 0.266807C372.305 0.800417 372.704 2.13445 372.171 3.06827C371.638 4.00209 370.306 4.40226 369.373 3.86865C368.307 3.33504 368.041 2.00105 368.574 1.06723Z" fill="white" fill-opacity="0.16"/>
<path d="M337.259 55.4955C336.726 56.4293 336.993 57.7633 338.059 58.2969C339.125 58.8305 340.324 58.5637 340.857 57.4965C341.39 56.5627 341.124 55.2286 340.058 54.695C338.992 54.1614 337.792 54.4282 337.259 55.4955Z" fill="white" fill-opacity="0.16"/>
<path d="M338.725 56.5626C338.725 56.4292 338.725 56.4292 338.858 56.2958C338.992 56.1624 339.125 56.2958 339.258 56.4292L370.572 110.858C370.706 110.991 370.572 111.124 370.439 111.258C370.306 111.391 370.173 111.258 370.039 111.124L338.725 56.696C338.725 56.5626 338.725 56.5626 338.725 56.5626Z" fill="white" fill-opacity="0.16"/>
<path d="M337.259 57.4965C336.726 56.5627 336.993 55.2286 338.059 54.695C338.992 54.1614 340.324 54.4282 340.857 55.4955C341.39 56.4293 341.124 57.7633 340.058 58.2969C338.992 58.8305 337.792 58.5637 337.259 57.4965Z" fill="white" fill-opacity="0.16"/>
<path d="M368.574 111.925C369.107 112.859 370.439 113.259 371.372 112.725C372.305 112.191 372.704 110.857 372.171 109.924C371.638 108.99 370.306 108.59 369.373 109.123C368.307 109.657 368.041 110.991 368.574 111.925Z" fill="white" fill-opacity="0.16"/>
<path d="M370.039 110.857C370.039 110.724 370.173 110.591 370.306 110.591L433.067 110.591C433.2 110.591 433.334 110.724 433.334 110.857C433.334 110.991 433.2 111.124 433.067 111.124L370.306 111.124C370.173 111.124 370.039 111.124 370.039 110.857Z" fill="white" fill-opacity="0.16"/>
<path d="M370.306 112.992C369.24 112.992 368.307 112.058 368.307 110.991C368.307 109.924 369.24 108.99 370.306 108.99C371.372 108.99 372.305 109.924 372.305 110.991C372.438 112.058 371.505 112.992 370.306 112.992Z" fill="white" fill-opacity="0.16"/>
<path d="M434 109.123C433.734 108.99 433.467 108.857 433.067 108.857C432.001 108.857 431.068 109.79 431.068 110.858C431.068 112.058 432.001 112.859 433.067 112.859C433.334 112.859 433.734 112.725 434 112.592L434 109.123Z" fill="white" fill-opacity="0.16"/>
<path d="M434 109.123C433.067 108.723 431.868 108.99 431.335 109.924C430.802 110.857 431.068 112.191 432.134 112.725C432.8 113.125 433.467 113.125 434 112.858L434 109.123Z" fill="white" fill-opacity="0.16"/>
<path d="M434 0.266706C433.467 -9.94446e-05 432.667 -9.13047e-05 432.134 0.400117C431.202 0.933727 430.802 2.26772 431.335 3.20154C431.868 4.13536 433.067 4.53557 434 4.00196L434 0.266706Z" fill="white" fill-opacity="0.16"/>
<path d="M370.039 110.857C370.039 110.724 370.173 110.591 370.306 110.591L433.067 110.591C433.2 110.591 433.334 110.724 433.334 110.857C433.334 110.991 433.2 111.124 433.067 111.124L370.306 111.124C370.173 111.124 370.039 110.991 370.039 110.857Z" fill="white" fill-opacity="0.16"/>
<path d="M370.306 112.992C369.107 112.992 368.307 112.058 368.307 110.991C368.307 109.924 369.24 108.99 370.306 108.99C371.372 108.99 372.305 109.924 372.305 110.991C372.438 112.058 371.505 112.992 370.306 112.992Z" fill="white" fill-opacity="0.16"/>
<path d="M434 109.123C433.734 108.99 433.467 108.857 433.067 108.857C432.001 108.857 431.068 109.79 431.068 110.858C431.068 111.925 432.001 112.859 433.067 112.859C433.334 112.859 433.734 112.725 434 112.592L434 109.123Z" fill="white" fill-opacity="0.16"/>
<path d="M338.725 165.286L338.725 165.153L370.039 110.724C370.173 110.591 370.306 110.591 370.439 110.591C370.572 110.724 370.572 110.858 370.572 110.991L339.258 165.419C339.125 165.553 338.992 165.553 338.858 165.553C338.725 165.553 338.725 165.419 338.725 165.286Z" fill="white" fill-opacity="0.16"/>
<path d="M368.574 109.924C369.107 108.99 370.439 108.59 371.372 109.123C372.305 109.657 372.704 110.991 372.171 111.925C371.638 112.859 370.306 113.259 369.373 112.725C368.307 112.058 368.041 110.857 368.574 109.924Z" fill="white" fill-opacity="0.16"/>
<path d="M337.259 164.219C336.726 165.152 336.993 166.486 338.059 167.02C338.992 167.554 340.324 167.287 340.857 166.22C341.39 165.286 341.124 163.952 340.058 163.418C338.992 163.018 337.792 163.285 337.259 164.219Z" fill="white" fill-opacity="0.16"/>
<path d="M338.725 165.286C338.725 165.152 338.725 165.152 338.858 165.019C338.992 164.886 339.125 165.019 339.258 165.152L370.572 219.581C370.706 219.714 370.572 219.847 370.439 219.981C370.306 220.114 370.173 219.981 370.039 219.847L338.725 165.419C338.725 165.419 338.725 165.419 338.725 165.286Z" fill="white" fill-opacity="0.16"/>
<path d="M337.259 166.353C336.726 165.419 336.993 164.085 338.059 163.552C338.992 163.018 340.324 163.285 340.857 164.352C341.39 165.286 341.124 166.62 340.058 167.154C338.992 167.687 337.792 167.287 337.259 166.353Z" fill="white" fill-opacity="0.16"/>
<path d="M368.574 220.781C369.107 221.715 370.439 222.115 371.372 221.582C372.305 221.048 372.704 219.714 372.171 218.78C371.638 217.847 370.306 217.446 369.373 217.98C368.307 218.514 368.041 219.714 368.574 220.781Z" fill="white" fill-opacity="0.16"/>
<path d="M370.039 219.714C370.039 219.581 370.173 219.447 370.306 219.447L433.067 219.447C433.2 219.447 433.334 219.581 433.334 219.714C433.334 219.848 433.2 219.981 433.067 219.981L370.306 219.981C370.173 219.981 370.039 219.848 370.039 219.714Z" fill="white" fill-opacity="0.16"/>
<path d="M370.306 221.715C369.24 221.715 368.307 220.782 368.307 219.714C368.307 218.647 369.24 217.713 370.306 217.713C371.372 217.713 372.305 218.647 372.305 219.714C372.438 220.915 371.505 221.715 370.306 221.715Z" fill="white" fill-opacity="0.16"/>
<path d="M434 217.847C433.734 217.713 433.467 217.58 433.067 217.58C432.001 217.58 431.068 218.514 431.068 219.581C431.068 220.648 432.001 221.582 433.067 221.582C433.334 221.582 433.734 221.449 434 221.315L434 217.847Z" fill="white" fill-opacity="0.16"/>
<path d="M434 217.846C433.067 217.446 431.868 217.713 431.335 218.647C430.802 219.581 431.068 220.915 432.134 221.448C432.8 221.848 433.467 221.848 434 221.582L434 217.846Z" fill="white" fill-opacity="0.16"/>
<path d="M434 108.99C433.467 108.723 432.667 108.723 432.134 109.123C431.202 109.657 430.802 110.991 431.335 111.925C431.868 112.859 433.067 113.259 434 112.725L434 108.99Z" fill="white" fill-opacity="0.16"/>
<path d="M370.039 219.714C370.039 219.581 370.173 219.447 370.306 219.447L433.067 219.447C433.2 219.447 433.334 219.581 433.334 219.714C433.334 219.848 433.2 219.981 433.067 219.981L370.306 219.981C370.173 219.981 370.039 219.848 370.039 219.714Z" fill="white" fill-opacity="0.16"/>
<path d="M370.306 221.715C369.107 221.715 368.307 220.782 368.307 219.714C368.307 218.647 369.24 217.713 370.306 217.713C371.372 217.713 372.305 218.647 372.305 219.714C372.438 220.782 371.505 221.715 370.306 221.715Z" fill="white" fill-opacity="0.16"/>
<path d="M434 217.847C433.734 217.713 433.467 217.58 433.067 217.58C432.001 217.58 431.068 218.514 431.068 219.581C431.068 220.648 432.001 221.582 433.067 221.582C433.334 221.582 433.734 221.449 434 221.315L434 217.847Z" fill="white" fill-opacity="0.16"/>
<path d="M338.725 274.142L338.725 274.009L370.039 219.581C370.173 219.447 370.306 219.447 370.439 219.447C370.572 219.581 370.572 219.714 370.572 219.847L339.258 274.276C339.125 274.409 338.992 274.409 338.858 274.409C338.725 274.276 338.725 274.276 338.725 274.142Z" fill="white" fill-opacity="0.16"/>
<path d="M368.574 218.647C369.107 217.713 370.439 217.313 371.372 217.847C372.305 218.38 372.704 219.714 372.171 220.648C371.638 221.582 370.306 221.982 369.373 221.448C368.307 220.915 368.041 219.714 368.574 218.647Z" fill="white" fill-opacity="0.16"/>
<path d="M337.259 273.075C336.726 274.009 336.993 275.343 338.059 275.877C338.992 276.41 340.324 276.144 340.857 275.076C341.39 274.143 341.124 272.808 340.058 272.275C338.992 271.741 337.792 272.141 337.259 273.075Z" fill="white" fill-opacity="0.16"/>
<path d="M338.725 274.142C338.725 274.009 338.725 274.009 338.858 273.875C338.992 273.742 339.125 273.875 339.258 274.009L370.572 328.437C370.706 328.571 370.572 328.704 370.439 328.837C370.306 328.971 370.173 328.837 370.039 328.704L338.725 274.276L338.725 274.142Z" fill="white" fill-opacity="0.16"/>
<path d="M337.259 275.209C336.726 274.276 336.993 272.942 338.059 272.408C338.992 271.874 340.324 272.141 340.857 273.208C341.39 274.142 341.124 275.476 340.058 276.01C338.992 276.41 337.792 276.143 337.259 275.209Z" fill="white" fill-opacity="0.16"/>
<path d="M368.574 329.505C369.107 330.438 370.439 330.839 371.372 330.305C372.305 329.771 372.704 328.437 372.171 327.503C371.638 326.57 370.306 326.169 369.373 326.703C368.307 327.37 368.041 328.571 368.574 329.505Z" fill="white" fill-opacity="0.16"/>
<path d="M370.039 328.571C370.039 328.437 370.173 328.304 370.306 328.304L433.067 328.304C433.2 328.304 433.334 328.437 433.334 328.571C433.334 328.704 433.2 328.837 433.067 328.837L370.306 328.837C370.173 328.837 370.039 328.704 370.039 328.571Z" fill="white" fill-opacity="0.16"/>
<path d="M370.306 330.572C369.24 330.572 368.307 329.638 368.307 328.571C368.307 327.504 369.24 326.57 370.306 326.57C371.372 326.57 372.305 327.504 372.305 328.571C372.438 329.638 371.505 330.572 370.306 330.572Z" fill="white" fill-opacity="0.16"/>
<path d="M434 326.703C433.734 326.57 433.467 326.436 433.067 326.436C432.001 326.436 431.068 327.37 431.068 328.437C431.068 329.638 432.001 330.438 433.067 330.438C433.334 330.438 433.734 330.305 434 330.172L434 326.703Z" fill="white" fill-opacity="0.16"/>
<path d="M434 326.703C433.067 326.303 431.868 326.569 431.335 327.503C430.802 328.437 431.068 329.771 432.134 330.305C432.8 330.705 433.467 330.705 434 330.438L434 326.703Z" fill="white" fill-opacity="0.16"/>
<path d="M434 217.847C433.467 217.58 432.667 217.58 432.134 217.98C431.202 218.514 430.802 219.848 431.335 220.781C431.868 221.715 433.067 222.115 434 221.582L434 217.847Z" fill="white" fill-opacity="0.16"/>
<path d="M338.725 56.5623L338.725 56.4289L370.039 2.0006C370.173 1.8672 370.306 1.86719 370.439 1.86719C370.572 2.00059 370.572 2.13402 370.572 2.26742L339.258 56.6957C339.125 56.8291 338.992 56.8291 338.858 56.8291C338.725 56.6957 338.725 56.5623 338.725 56.5623Z" fill="white" fill-opacity="0.16"/>
<path d="M340.724 57.4962C340.191 58.43 338.858 58.8303 337.926 58.2966C336.993 57.763 336.593 56.429 337.126 55.4952C337.659 54.5614 338.992 54.1611 339.924 54.6948C340.99 55.2284 341.257 56.5624 340.724 57.4962Z" fill="white" fill-opacity="0.16"/>
<path d="M372.171 3.06806C372.704 2.13424 372.438 0.800204 371.372 0.266593C370.439 -0.267017 369.107 -0.000203896 368.574 1.06702C368.041 2.00084 368.307 3.33483 369.373 3.86844C370.306 4.40205 371.505 4.13528 372.171 3.06806Z" fill="white" fill-opacity="0.16"/>
<path d="M244.516 110.857C244.516 110.724 244.516 110.724 244.65 110.591C244.783 110.457 244.916 110.591 245.049 110.724L276.363 165.152C276.497 165.286 276.363 165.419 276.23 165.552C276.097 165.686 275.964 165.552 275.83 165.419L244.516 110.991C244.516 110.991 244.516 110.991 244.516 110.857Z" fill="white" fill-opacity="0.16"/>
<path d="M243.051 111.925C242.518 110.991 242.784 109.657 243.85 109.123C244.783 108.59 246.115 108.856 246.648 109.924C247.181 110.857 246.915 112.191 245.849 112.725C244.916 113.259 243.584 112.859 243.051 111.925Z" fill="white" fill-opacity="0.16"/>
<path d="M274.498 166.353C275.031 167.287 276.363 167.687 277.296 167.153C278.229 166.62 278.629 165.286 278.096 164.352C277.563 163.418 276.23 163.018 275.297 163.551C274.231 164.085 273.832 165.419 274.498 166.353Z" fill="white" fill-opacity="0.16"/>
<path d="M275.964 165.286C275.964 165.152 276.097 165.019 276.23 165.019L338.992 165.019C339.125 165.019 339.258 165.152 339.258 165.286C339.258 165.419 339.125 165.552 338.992 165.552L276.23 165.552C276.097 165.552 275.964 165.419 275.964 165.286Z" fill="white" fill-opacity="0.16"/>
<path d="M276.23 167.42C275.031 167.42 274.231 166.486 274.231 165.419C274.231 164.352 275.164 163.418 276.23 163.418C277.429 163.418 278.229 164.352 278.229 165.419C278.229 166.486 277.296 167.42 276.23 167.42Z" fill="white" fill-opacity="0.16"/>
<path d="M338.992 167.42C340.191 167.42 340.99 166.486 340.99 165.419C340.99 164.219 340.058 163.418 338.992 163.418C337.792 163.418 336.993 164.352 336.993 165.419C336.86 166.486 337.792 167.42 338.992 167.42Z" fill="white" fill-opacity="0.16"/>
<path d="M338.725 165.286L338.725 165.152L370.039 110.724C370.172 110.591 370.306 110.591 370.439 110.591C370.572 110.724 370.572 110.857 370.572 110.991L339.258 165.419C339.125 165.552 338.992 165.552 338.858 165.552C338.725 165.552 338.725 165.419 338.725 165.286Z" fill="white" fill-opacity="0.16"/>
<path d="M340.724 166.353C340.191 167.287 338.858 167.687 337.926 167.153C336.993 166.62 336.593 165.286 337.126 164.352C337.659 163.418 338.992 163.018 339.924 163.551C340.99 164.085 341.257 165.419 340.724 166.353Z" fill="white" fill-opacity="0.16"/>
<path d="M372.171 111.925C372.704 110.991 372.438 109.657 371.372 109.123C370.439 108.59 369.106 108.856 368.573 109.924C368.04 110.857 368.307 112.191 369.373 112.725C370.306 113.259 371.505 112.859 372.171 111.925Z" fill="white" fill-opacity="0.16"/>
<path d="M338.725 56.5624C338.725 56.429 338.725 56.429 338.858 56.2956C338.992 56.1622 339.125 56.2956 339.258 56.429L370.572 110.857C370.706 110.991 370.572 111.124 370.439 111.257C370.306 111.391 370.173 111.257 370.039 111.124L338.725 56.6958C338.725 56.5624 338.725 56.5624 338.725 56.5624Z" fill="white" fill-opacity="0.16"/>
<path d="M372.171 109.923C372.704 110.857 372.438 112.191 371.372 112.725C370.439 113.259 369.107 112.992 368.574 111.924C368.041 110.991 368.307 109.657 369.373 109.123C370.306 108.589 371.505 108.856 372.171 109.923Z" fill="white" fill-opacity="0.16"/>
<path d="M340.724 55.4952C340.191 54.5614 338.858 54.1611 337.926 54.6948C336.993 55.2284 336.593 56.5624 337.126 57.4962C337.659 58.43 338.992 58.8303 339.924 58.2966C340.99 57.763 341.257 56.429 340.724 55.4952Z" fill="white" fill-opacity="0.16"/>
<path d="M275.964 165.286C275.964 165.152 276.097 165.019 276.23 165.019L338.992 165.019C339.125 165.019 339.258 165.152 339.258 165.286C339.258 165.419 339.125 165.552 338.992 165.552L276.23 165.552C276.097 165.552 275.964 165.419 275.964 165.286Z" fill="white" fill-opacity="0.16"/>
<path d="M276.23 167.42C275.164 167.42 274.231 166.486 274.231 165.419C274.231 164.352 275.164 163.418 276.23 163.418C277.429 163.418 278.229 164.352 278.229 165.419C278.229 166.486 277.296 167.42 276.23 167.42Z" fill="white" fill-opacity="0.16"/>
<path d="M338.992 167.42C340.058 167.42 340.99 166.486 340.99 165.419C340.99 164.352 340.058 163.418 338.992 163.418C337.792 163.418 336.993 164.352 336.993 165.419C336.993 166.486 337.792 167.42 338.992 167.42Z" fill="white" fill-opacity="0.16"/>
<path d="M244.516 219.714L244.516 219.581L275.83 165.152C275.964 165.019 276.097 165.019 276.23 165.019C276.363 165.152 276.363 165.286 276.363 165.419L245.049 219.848C244.916 219.981 244.783 219.981 244.65 219.981C244.65 219.848 244.516 219.848 244.516 219.714Z" fill="white" fill-opacity="0.16"/>
<path d="M274.498 164.219C275.031 163.285 276.363 162.885 277.296 163.418C278.229 163.952 278.629 165.286 278.096 166.22C277.563 167.154 276.23 167.554 275.297 167.02C274.231 166.487 273.832 165.286 274.498 164.219Z" fill="white" fill-opacity="0.16"/>
<path d="M243.051 218.647C242.518 219.581 242.784 220.915 243.85 221.449C244.783 221.982 246.115 221.715 246.648 220.648C247.181 219.714 246.915 218.38 245.849 217.847C244.916 217.313 243.584 217.713 243.051 218.647Z" fill="white" fill-opacity="0.16"/>
<path d="M244.516 219.714C244.516 219.581 244.516 219.581 244.65 219.447C244.783 219.314 244.916 219.447 245.049 219.581L276.363 274.009C276.497 274.142 276.363 274.276 276.23 274.409C276.097 274.543 275.964 274.409 275.83 274.276L244.516 219.847L244.516 219.714Z" fill="white" fill-opacity="0.16"/>
<path d="M243.051 220.781C242.518 219.848 242.784 218.514 243.85 217.98C244.783 217.446 246.115 217.713 246.648 218.78C247.181 219.714 246.915 221.048 245.849 221.582C244.916 222.115 243.584 221.715 243.051 220.781Z" fill="white" fill-opacity="0.16"/>
<path d="M274.498 275.21C275.031 276.143 276.363 276.544 277.296 276.01C278.229 275.476 278.629 274.142 278.096 273.209C277.563 272.275 276.23 271.875 275.297 272.408C274.231 272.942 273.832 274.142 274.498 275.21Z" fill="white" fill-opacity="0.16"/>
<path d="M275.964 274.142C275.964 274.009 276.097 273.876 276.23 273.876L338.992 273.876C339.125 273.876 339.258 274.009 339.258 274.142C339.258 274.276 339.125 274.409 338.992 274.409L276.23 274.409C276.097 274.409 275.964 274.276 275.964 274.142Z" fill="white" fill-opacity="0.16"/>
<path d="M276.23 276.144C275.031 276.144 274.231 275.21 274.231 274.143C274.231 272.942 275.164 272.141 276.23 272.141C277.429 272.141 278.229 273.075 278.229 274.143C278.229 275.21 277.296 276.144 276.23 276.144Z" fill="white" fill-opacity="0.16"/>
<path d="M338.992 276.144C340.191 276.144 340.99 275.21 340.99 274.143C340.99 273.075 340.058 272.141 338.992 272.141C337.792 272.141 336.993 273.075 336.993 274.143C336.86 275.21 337.792 276.144 338.992 276.144Z" fill="white" fill-opacity="0.16"/>
<path d="M338.725 274.142L338.725 274.009L370.039 219.581C370.172 219.447 370.306 219.447 370.439 219.447C370.572 219.581 370.572 219.714 370.572 219.847L339.258 274.276C339.125 274.409 338.992 274.409 338.858 274.409C338.725 274.276 338.725 274.276 338.725 274.142Z" fill="white" fill-opacity="0.16"/>
<path d="M340.724 275.21C340.191 276.143 338.858 276.544 337.926 276.01C336.993 275.476 336.593 274.142 337.126 273.209C337.659 272.275 338.992 271.875 339.924 272.408C340.99 272.942 341.257 274.142 340.724 275.21Z" fill="white" fill-opacity="0.16"/>
<path d="M372.171 220.781C372.704 219.848 372.438 218.514 371.372 217.98C370.439 217.446 369.106 217.713 368.573 218.78C368.04 219.714 368.307 221.048 369.373 221.582C370.306 222.115 371.505 221.715 372.171 220.781Z" fill="white" fill-opacity="0.16"/>
<path d="M338.725 165.286C338.725 165.152 338.725 165.152 338.858 165.019C338.992 164.886 339.125 165.019 339.258 165.152L370.572 219.581C370.705 219.714 370.572 219.847 370.439 219.981C370.306 220.114 370.172 219.981 370.039 219.847L338.725 165.419C338.725 165.419 338.725 165.419 338.725 165.286Z" fill="white" fill-opacity="0.16"/>
<path d="M372.171 218.647C372.704 219.581 372.438 220.915 371.372 221.449C370.439 221.982 369.106 221.715 368.573 220.648C368.04 219.714 368.307 218.38 369.373 217.847C370.306 217.313 371.505 217.713 372.171 218.647Z" fill="white" fill-opacity="0.16"/>
<path d="M340.724 164.219C340.191 163.285 338.858 162.885 337.926 163.418C336.993 163.952 336.593 165.286 337.126 166.22C337.659 167.154 338.992 167.554 339.924 167.02C340.99 166.487 341.257 165.286 340.724 164.219Z" fill="white" fill-opacity="0.16"/>
<path d="M275.964 274.142C275.964 274.009 276.097 273.876 276.23 273.876L338.992 273.876C339.125 273.876 339.258 274.009 339.258 274.142C339.258 274.276 339.125 274.409 338.992 274.409L276.23 274.409C276.097 274.409 275.964 274.276 275.964 274.142Z" fill="white" fill-opacity="0.16"/>
<path d="M276.23 276.144C275.164 276.144 274.231 275.21 274.231 274.143C274.231 272.942 275.164 272.141 276.23 272.141C277.429 272.141 278.229 273.075 278.229 274.143C278.229 275.21 277.296 276.144 276.23 276.144Z" fill="white" fill-opacity="0.16"/>
<path d="M338.992 276.144C340.058 276.144 340.99 275.21 340.99 274.143C340.99 272.942 340.058 272.141 338.992 272.141C337.792 272.141 336.993 273.075 336.993 274.143C336.86 275.21 337.792 276.144 338.992 276.144Z" fill="white" fill-opacity="0.16"/>
<path d="M244.516 328.571L244.516 328.437L275.83 274.009C275.964 273.876 276.097 273.876 276.23 273.876C276.363 274.009 276.363 274.142 276.363 274.276L245.049 328.704C244.916 328.837 244.783 328.837 244.65 328.837C244.65 328.704 244.516 328.571 244.516 328.571Z" fill="white" fill-opacity="0.16"/>
<path d="M274.498 273.075C275.031 272.141 276.363 271.741 277.296 272.275C278.229 272.808 278.629 274.142 278.096 275.076C277.563 276.01 276.23 276.41 275.297 275.877C274.231 275.343 273.832 274.142 274.498 273.075Z" fill="white" fill-opacity="0.16"/>
<path d="M243.051 327.504C242.518 328.437 242.784 329.771 243.85 330.305C244.783 330.839 246.115 330.572 246.648 329.505C247.181 328.571 246.915 327.237 245.849 326.703C244.916 326.169 243.584 326.57 243.051 327.504Z" fill="white" fill-opacity="0.16"/>
<path d="M244.516 328.57C244.516 328.437 244.516 328.437 244.65 328.304C244.783 328.17 244.916 328.304 245.049 328.437L276.497 382.865C276.63 382.999 276.497 383.132 276.363 383.266C276.23 383.399 276.097 383.266 275.964 383.132L244.65 328.704C244.516 328.57 244.516 328.57 244.516 328.57Z" fill="white" fill-opacity="0.16"/>
<path d="M243.051 329.505C242.518 328.571 242.784 327.237 243.85 326.703C244.783 326.169 246.115 326.436 246.648 327.504C247.181 328.437 246.915 329.771 245.849 330.305C244.916 330.839 243.584 330.572 243.051 329.505Z" fill="white" fill-opacity="0.16"/>
<path d="M274.498 383.933C275.031 384.867 276.363 385.267 277.296 384.733C278.229 384.2 278.629 382.866 278.096 381.932C277.563 380.998 276.23 380.598 275.297 381.131C274.231 381.798 273.832 382.999 274.498 383.933Z" fill="white" fill-opacity="0.16"/>
<path d="M275.964 382.999C275.964 382.865 276.097 382.732 276.23 382.732L338.992 382.732C339.125 382.732 339.258 382.865 339.258 382.999C339.258 383.132 339.125 383.266 338.992 383.266L276.23 383.266C276.097 383.266 275.964 383.132 275.964 382.999Z" fill="white" fill-opacity="0.16"/>
<path d="M277.676 381.563C276.895 380.781 275.63 380.781 274.849 381.563C274.068 382.344 274.068 383.611 274.849 384.393C275.63 385.174 276.895 385.174 277.676 384.393C278.456 383.611 278.456 382.344 277.676 381.563Z" fill="white" fill-opacity="0.16"/>
<path d="M338.992 385C340.191 385 340.99 384.066 340.99 382.999C340.99 381.798 340.058 380.998 338.992 380.998C337.792 380.998 336.993 381.932 336.993 382.999C336.86 384.066 337.792 385 338.992 385Z" fill="white" fill-opacity="0.16"/>
<path d="M338.725 382.999L338.725 382.865L370.039 328.437C370.172 328.304 370.306 328.304 370.439 328.304C370.572 328.437 370.572 328.571 370.572 328.704L339.258 383.132C339.125 383.266 338.992 383.266 338.858 383.266C338.725 383.132 338.725 382.999 338.725 382.999Z" fill="white" fill-opacity="0.16"/>
<path d="M340.724 383.933C340.191 384.867 338.858 385.267 337.926 384.733C336.993 384.2 336.593 382.866 337.126 381.932C337.659 380.998 338.992 380.598 339.924 381.131C340.99 381.665 341.257 382.999 340.724 383.933Z" fill="white" fill-opacity="0.16"/>
<path d="M372.171 329.505C372.704 328.571 372.438 327.237 371.372 326.703C370.439 326.169 369.106 326.436 368.573 327.504C368.04 328.437 368.307 329.771 369.373 330.305C370.306 330.839 371.505 330.572 372.171 329.505Z" fill="white" fill-opacity="0.16"/>
<path d="M338.725 274.142C338.725 274.009 338.725 274.009 338.858 273.875C338.992 273.742 339.125 273.875 339.258 274.009L370.572 328.437C370.705 328.571 370.572 328.704 370.439 328.837C370.306 328.971 370.172 328.837 370.039 328.704L338.725 274.276L338.725 274.142Z" fill="white" fill-opacity="0.16"/>
<path d="M372.171 327.504C372.704 328.437 372.438 329.771 371.372 330.305C370.439 330.839 369.106 330.572 368.573 329.505C368.04 328.571 368.307 327.237 369.373 326.703C370.306 326.169 371.505 326.57 372.171 327.504Z" fill="white" fill-opacity="0.16"/>
<path d="M340.724 273.075C340.191 272.141 338.858 271.741 337.926 272.275C336.993 272.808 336.593 274.142 337.126 275.076C337.659 276.01 338.992 276.41 339.924 275.877C340.99 275.343 341.257 274.142 340.724 273.075Z" fill="white" fill-opacity="0.16"/>
<path d="M150.441 165.286C150.441 165.152 150.441 165.152 150.574 165.019C150.707 164.886 150.841 165.019 150.974 165.152L182.288 219.581C182.421 219.714 182.288 219.847 182.155 219.981C182.022 220.114 181.888 219.981 181.755 219.847L150.441 165.419C150.441 165.419 150.441 165.419 150.441 165.286Z" fill="white" fill-opacity="0.16"/>
<path d="M148.975 166.353C148.442 165.419 148.709 164.085 149.775 163.552C150.707 163.018 152.04 163.285 152.573 164.352C153.106 165.286 152.839 166.62 151.773 167.154C150.707 167.687 149.508 167.287 148.975 166.353Z" fill="white" fill-opacity="0.16"/>
<path d="M180.289 220.781C180.822 221.715 182.155 222.115 183.087 221.582C184.02 221.048 184.42 219.714 183.887 218.78C183.354 217.847 182.021 217.446 181.089 217.98C180.023 218.514 179.756 219.714 180.289 220.781Z" fill="white" fill-opacity="0.16"/>
<path d="M181.755 219.714C181.755 219.581 181.888 219.447 182.022 219.447L244.783 219.447C244.916 219.447 245.049 219.581 245.049 219.714C245.049 219.848 244.916 219.981 244.783 219.981L182.022 219.981C181.888 219.981 181.755 219.848 181.755 219.714Z" fill="white" fill-opacity="0.16"/>
<path d="M182.021 221.715C180.822 221.715 180.023 220.782 180.023 219.714C180.023 218.647 180.955 217.713 182.021 217.713C183.087 217.713 184.02 218.647 184.02 219.714C184.153 220.915 183.221 221.715 182.021 221.715Z" fill="white" fill-opacity="0.16"/>
<path d="M244.783 221.715C245.982 221.715 246.782 220.782 246.782 219.714C246.782 218.514 245.849 217.713 244.783 217.713C243.717 217.713 242.784 218.647 242.784 219.714C242.784 220.915 243.717 221.715 244.783 221.715Z" fill="white" fill-opacity="0.16"/>
<path d="M244.516 219.714L244.516 219.581L275.83 165.152C275.963 165.019 276.097 165.019 276.23 165.019C276.363 165.152 276.363 165.286 276.363 165.419L245.049 219.848C244.916 219.981 244.783 219.981 244.649 219.981C244.649 219.848 244.516 219.848 244.516 219.714Z" fill="white" fill-opacity="0.16"/>
<path d="M246.648 220.781C246.115 221.715 244.783 222.115 243.85 221.582C242.917 221.048 242.517 219.714 243.05 218.78C243.583 217.847 244.916 217.446 245.849 217.98C246.781 218.514 247.181 219.714 246.648 220.781Z" fill="white" fill-opacity="0.16"/>
<path d="M277.962 166.353C278.495 165.419 278.229 164.085 277.163 163.552C276.23 163.018 274.898 163.285 274.365 164.352C273.832 165.286 274.098 166.62 275.164 167.154C276.23 167.687 277.429 167.287 277.962 166.353Z" fill="white" fill-opacity="0.16"/>
<path d="M244.516 110.858C244.516 110.724 244.516 110.724 244.649 110.591C244.783 110.457 244.916 110.591 245.049 110.724L276.363 165.152C276.496 165.286 276.363 165.419 276.23 165.553C276.097 165.686 275.963 165.553 275.83 165.419L244.516 110.991C244.516 110.991 244.516 110.991 244.516 110.858Z" fill="white" fill-opacity="0.16"/>
<path d="M277.962 164.219C278.495 165.152 278.229 166.486 277.163 167.02C276.23 167.554 274.898 167.287 274.365 166.22C273.832 165.286 274.098 163.952 275.164 163.418C276.23 163.018 277.429 163.285 277.962 164.219Z" fill="white" fill-opacity="0.16"/>
<path d="M246.648 109.924C246.115 108.99 244.783 108.59 243.85 109.123C242.917 109.657 242.517 110.991 243.05 111.925C243.583 112.859 244.916 113.259 245.849 112.725C246.781 112.058 247.181 110.857 246.648 109.924Z" fill="white" fill-opacity="0.16"/>
<path d="M181.755 219.714C181.755 219.581 181.888 219.447 182.022 219.447L244.783 219.447C244.916 219.447 245.049 219.581 245.049 219.714C245.049 219.848 244.916 219.981 244.783 219.981L182.022 219.981C181.888 219.981 181.755 219.848 181.755 219.714Z" fill="white" fill-opacity="0.16"/>
<path d="M182.021 221.715C180.822 221.715 180.023 220.782 180.023 219.714C180.023 218.647 180.955 217.713 182.021 217.713C183.087 217.713 184.02 218.647 184.02 219.714C184.153 220.782 183.221 221.715 182.021 221.715Z" fill="white" fill-opacity="0.16"/>
<path d="M244.783 221.715C245.982 221.715 246.782 220.782 246.782 219.714C246.782 218.647 245.849 217.713 244.783 217.713C243.717 217.713 242.784 218.647 242.784 219.714C242.784 220.782 243.717 221.715 244.783 221.715Z" fill="white" fill-opacity="0.16"/>
<path d="M150.441 274.142L150.441 274.009L181.755 219.581C181.888 219.447 182.022 219.447 182.155 219.447C182.288 219.581 182.288 219.714 182.288 219.847L150.974 274.276C150.841 274.409 150.707 274.409 150.574 274.409C150.441 274.276 150.441 274.276 150.441 274.142Z" fill="white" fill-opacity="0.16"/>
<path d="M180.289 218.647C180.822 217.713 182.155 217.313 183.087 217.847C184.02 218.38 184.42 219.714 183.887 220.648C183.354 221.582 182.021 221.982 181.089 221.448C180.023 220.915 179.756 219.714 180.289 218.647Z" fill="white" fill-opacity="0.16"/>
<path d="M148.975 273.075C148.442 274.009 148.709 275.343 149.775 275.877C150.707 276.41 152.04 276.144 152.573 275.076C153.106 274.143 152.839 272.808 151.773 272.275C150.707 271.741 149.508 272.141 148.975 273.075Z" fill="white" fill-opacity="0.16"/>
<path d="M150.441 274.142C150.441 274.009 150.441 274.009 150.574 273.875C150.707 273.742 150.841 273.875 150.974 274.009L182.288 328.437C182.421 328.571 182.288 328.704 182.155 328.837C182.022 328.971 181.888 328.837 181.755 328.704L150.441 274.276L150.441 274.142Z" fill="white" fill-opacity="0.16"/>
<path d="M148.975 275.209C148.442 274.276 148.709 272.942 149.775 272.408C150.707 271.874 152.04 272.141 152.573 273.208C153.106 274.142 152.839 275.476 151.773 276.01C150.707 276.41 149.508 276.143 148.975 275.209Z" fill="white" fill-opacity="0.16"/>
<path d="M180.289 329.505C180.822 330.438 182.155 330.839 183.087 330.305C184.02 329.771 184.42 328.437 183.887 327.503C183.354 326.57 182.021 326.169 181.089 326.703C180.023 327.37 179.756 328.571 180.289 329.505Z" fill="white" fill-opacity="0.16"/>
<path d="M181.755 328.571C181.755 328.437 181.888 328.304 182.022 328.304L244.783 328.304C244.916 328.304 245.049 328.437 245.049 328.571C245.049 328.704 244.916 328.837 244.783 328.837L182.022 328.837C181.888 328.837 181.755 328.704 181.755 328.571Z" fill="white" fill-opacity="0.16"/>
<path d="M182.021 330.572C180.822 330.572 180.023 329.638 180.023 328.571C180.023 327.504 180.955 326.57 182.021 326.57C183.087 326.57 184.02 327.504 184.02 328.571C184.153 329.638 183.221 330.572 182.021 330.572Z" fill="white" fill-opacity="0.16"/>
<path d="M244.783 330.572C245.982 330.572 246.782 329.638 246.782 328.571C246.782 327.504 245.849 326.57 244.783 326.57C243.717 326.57 242.784 327.504 242.784 328.571C242.784 329.638 243.717 330.572 244.783 330.572Z" fill="white" fill-opacity="0.16"/>
<path d="M244.516 328.571L244.516 328.437L275.83 274.009C275.963 273.876 276.097 273.876 276.23 273.876C276.363 274.009 276.363 274.142 276.363 274.276L245.049 328.704C244.916 328.837 244.783 328.837 244.649 328.837C244.649 328.704 244.516 328.571 244.516 328.571Z" fill="white" fill-opacity="0.16"/>
<path d="M246.648 329.505C246.115 330.438 244.783 330.839 243.85 330.305C242.917 329.771 242.517 328.437 243.05 327.503C243.583 326.57 244.916 326.169 245.849 326.703C246.781 327.37 247.181 328.571 246.648 329.505Z" fill="white" fill-opacity="0.16"/>
<path d="M277.962 275.209C278.495 274.276 278.229 272.942 277.163 272.408C276.23 271.874 274.898 272.141 274.365 273.208C273.832 274.142 274.098 275.476 275.164 276.01C276.23 276.41 277.429 276.143 277.962 275.209Z" fill="white" fill-opacity="0.16"/>
<path d="M244.516 219.714C244.516 219.581 244.516 219.581 244.649 219.447C244.783 219.314 244.916 219.447 245.049 219.581L276.363 274.009C276.496 274.142 276.363 274.276 276.23 274.409C276.097 274.543 275.963 274.409 275.83 274.276L244.516 219.847L244.516 219.714Z" fill="white" fill-opacity="0.16"/>
<path d="M277.962 273.075C278.495 274.009 278.229 275.343 277.163 275.877C276.23 276.41 274.898 276.144 274.365 275.076C273.832 274.143 274.098 272.808 275.164 272.275C276.23 271.741 277.429 272.141 277.962 273.075Z" fill="white" fill-opacity="0.16"/>
<path d="M246.648 218.647C246.115 217.713 244.783 217.313 243.85 217.847C242.917 218.38 242.517 219.714 243.05 220.648C243.583 221.582 244.916 221.982 245.849 221.448C246.781 220.915 247.181 219.714 246.648 218.647Z" fill="white" fill-opacity="0.16"/>
<path d="M87.6794 165.286C87.6794 165.152 87.8127 165.019 87.9459 165.019L150.707 165.019C150.841 165.019 150.974 165.152 150.974 165.286C150.974 165.419 150.841 165.552 150.707 165.552L87.9459 165.552C87.8127 165.552 87.6794 165.419 87.6794 165.286Z" fill="white" fill-opacity="0.16"/>
<path d="M87.9459 167.42C86.8799 167.42 85.9471 166.486 85.9471 165.419C85.9471 164.352 86.8799 163.418 87.9459 163.418C89.0119 163.418 89.9447 164.352 89.9447 165.419C89.9447 166.486 89.1452 167.42 87.9459 167.42Z" fill="white" fill-opacity="0.16"/>
<path d="M150.707 167.42C151.773 167.42 152.706 166.486 152.706 165.419C152.706 164.219 151.773 163.418 150.707 163.418C149.641 163.418 148.709 164.352 148.709 165.419C148.709 166.486 149.508 167.42 150.707 167.42Z" fill="white" fill-opacity="0.16"/>
<path d="M87.6794 165.286C87.6794 165.152 87.8127 165.019 87.9459 165.019L150.707 165.019C150.841 165.019 150.974 165.152 150.974 165.286C150.974 165.419 150.841 165.552 150.707 165.552L87.9459 165.552C87.8127 165.552 87.6794 165.419 87.6794 165.286Z" fill="white" fill-opacity="0.16"/>
<path d="M87.9459 167.42C86.8799 167.42 85.9471 166.486 85.9471 165.419C85.9471 164.352 86.8799 163.418 87.9459 163.418C89.0119 163.418 89.9447 164.352 89.9447 165.419C89.9447 166.486 89.1452 167.42 87.9459 167.42Z" fill="white" fill-opacity="0.16"/>
<path d="M150.707 167.42C151.773 167.42 152.706 166.486 152.706 165.419C152.706 164.352 151.773 163.418 150.707 163.418C149.641 163.418 148.709 164.352 148.709 165.419C148.709 166.486 149.508 167.42 150.707 167.42Z" fill="white" fill-opacity="0.16"/>
<path d="M56.2322 219.714L56.2322 219.581L87.5463 165.152C87.6795 165.019 87.8128 165.019 87.946 165.019C88.0793 165.152 88.0793 165.286 88.0793 165.419L56.7652 219.848C56.6319 219.981 56.4987 219.981 56.3654 219.981C56.3654 219.848 56.2322 219.848 56.2322 219.714Z" fill="white" fill-opacity="0.16"/>
<path d="M86.2137 164.219C86.7467 163.285 88.0792 162.885 89.012 163.418C89.9447 163.952 90.3445 165.286 89.8115 166.22C89.2785 167.154 87.9459 167.554 87.0132 167.02C85.9472 166.487 85.5474 165.286 86.2137 164.219Z" fill="white" fill-opacity="0.16"/>
<path d="M54.7664 218.647C54.2334 219.581 54.4999 220.915 55.5659 221.449C56.4987 221.982 57.8312 221.715 58.3642 220.648C58.8972 219.714 58.6307 218.38 57.5647 217.847C56.6319 217.313 55.2994 217.713 54.7664 218.647Z" fill="white" fill-opacity="0.16"/>
<path d="M56.2322 219.714C56.2322 219.581 56.2322 219.581 56.3654 219.447C56.4987 219.314 56.6319 219.447 56.7652 219.581L88.2125 274.009C88.3458 274.142 88.2125 274.276 88.0793 274.409C87.946 274.543 87.8128 274.409 87.6795 274.276L56.3654 219.847L56.2322 219.714Z" fill="white" fill-opacity="0.16"/>
<path d="M54.7664 220.781C54.2334 219.848 54.4999 218.514 55.5659 217.98C56.4987 217.446 57.8312 217.713 58.3642 218.78C58.8972 219.714 58.6307 221.048 57.5647 221.582C56.6319 222.115 55.2994 221.715 54.7664 220.781Z" fill="white" fill-opacity="0.16"/>
<path d="M86.2137 275.21C86.7467 276.143 88.0792 276.544 89.012 276.01C89.9447 275.476 90.3445 274.142 89.8115 273.209C89.2785 272.275 87.9459 271.875 87.0132 272.408C85.9472 272.942 85.5474 274.142 86.2137 275.21Z" fill="white" fill-opacity="0.16"/>
<path d="M87.6794 274.142C87.6794 274.009 87.8127 273.876 87.9459 273.876L150.707 273.876C150.841 273.876 150.974 274.009 150.974 274.142C150.974 274.276 150.841 274.409 150.707 274.409L87.9459 274.409C87.8127 274.409 87.6794 274.276 87.6794 274.142Z" fill="white" fill-opacity="0.16"/>
<path d="M87.9459 276.144C86.8799 276.144 85.9471 275.21 85.9471 274.143C85.9471 272.942 86.8799 272.141 87.9459 272.141C89.0119 272.141 89.9447 273.075 89.9447 274.143C89.9447 275.21 89.1452 276.144 87.9459 276.144Z" fill="white" fill-opacity="0.16"/>
<path d="M150.707 276.144C151.773 276.144 152.706 275.21 152.706 274.143C152.706 273.075 151.773 272.141 150.707 272.141C149.641 272.141 148.709 273.075 148.709 274.143C148.709 275.21 149.508 276.144 150.707 276.144Z" fill="white" fill-opacity="0.16"/>
<path d="M150.441 274.142L150.441 274.009L181.755 219.581C181.888 219.447 182.022 219.447 182.155 219.447C182.288 219.581 182.288 219.714 182.288 219.847L150.974 274.276C150.841 274.409 150.707 274.409 150.574 274.409C150.441 274.276 150.441 274.276 150.441 274.142Z" fill="white" fill-opacity="0.16"/>
<path d="M152.44 275.21C151.907 276.143 150.574 276.544 149.641 276.01C148.709 275.476 148.309 274.142 148.842 273.209C149.375 272.275 150.707 271.875 151.64 272.408C152.706 272.942 153.106 274.142 152.44 275.21Z" fill="white" fill-opacity="0.16"/>
<path d="M183.887 220.781C184.42 219.848 184.153 218.514 183.087 217.98C182.155 217.446 180.822 217.713 180.289 218.78C179.756 219.714 180.023 221.048 181.089 221.582C182.021 222.115 183.354 221.715 183.887 220.781Z" fill="white" fill-opacity="0.16"/>
<path d="M150.441 165.286C150.441 165.152 150.441 165.152 150.574 165.019C150.707 164.886 150.841 165.019 150.974 165.152L182.288 219.581C182.421 219.714 182.288 219.847 182.155 219.981C182.022 220.114 181.888 219.981 181.755 219.847L150.441 165.419C150.441 165.419 150.441 165.419 150.441 165.286Z" fill="white" fill-opacity="0.16"/>
<path d="M183.887 218.647C184.42 219.581 184.153 220.915 183.087 221.449C182.155 221.982 180.822 221.715 180.289 220.648C179.756 219.714 180.023 218.38 181.089 217.847C182.021 217.313 183.354 217.713 183.887 218.647Z" fill="white" fill-opacity="0.16"/>
<path d="M152.44 164.219C151.907 163.285 150.574 162.885 149.641 163.418C148.709 163.952 148.309 165.286 148.842 166.22C149.375 167.154 150.707 167.554 151.64 167.02C152.706 166.487 153.106 165.286 152.44 164.219Z" fill="white" fill-opacity="0.16"/>
<path d="M87.6794 274.142C87.6794 274.009 87.8127 273.876 87.9459 273.876L150.707 273.876C150.841 273.876 150.974 274.009 150.974 274.142C150.974 274.276 150.841 274.409 150.707 274.409L87.9459 274.409C87.8127 274.409 87.6794 274.276 87.6794 274.142Z" fill="white" fill-opacity="0.16"/>
<path d="M87.9459 276.144C86.8799 276.144 85.9471 275.21 85.9471 274.143C85.9471 272.942 86.8799 272.141 87.9459 272.141C89.0119 272.141 89.9447 273.075 89.9447 274.143C89.9447 275.21 89.1452 276.144 87.9459 276.144Z" fill="white" fill-opacity="0.16"/>
<path d="M150.707 276.144C151.773 276.144 152.706 275.21 152.706 274.143C152.706 272.942 151.773 272.141 150.707 272.141C149.641 272.141 148.709 273.075 148.709 274.143C148.709 275.21 149.508 276.144 150.707 276.144Z" fill="white" fill-opacity="0.16"/>
<path d="M56.2322 328.571L56.2322 328.437L87.5463 274.009C87.6795 273.876 87.8128 273.876 87.946 273.876C88.0793 274.009 88.0793 274.142 88.0793 274.276L56.7652 328.704C56.6319 328.837 56.4987 328.837 56.3654 328.837C56.3654 328.704 56.2322 328.571 56.2322 328.571Z" fill="white" fill-opacity="0.16"/>
<path d="M86.2137 273.075C86.7467 272.141 88.0792 271.741 89.012 272.275C89.9447 272.808 90.3445 274.142 89.8115 275.076C89.2785 276.01 87.9459 276.41 87.0132 275.877C85.9472 275.343 85.5474 274.142 86.2137 273.075Z" fill="white" fill-opacity="0.16"/>
<path d="M54.7664 327.504C54.2334 328.437 54.4999 329.771 55.5659 330.305C56.4987 330.839 57.8312 330.572 58.3642 329.505C58.8972 328.571 58.6307 327.237 57.5647 326.703C56.6319 326.169 55.2994 326.57 54.7664 327.504Z" fill="white" fill-opacity="0.16"/>
<path d="M56.2322 328.57C56.2322 328.437 56.2322 328.437 56.3654 328.304C56.4987 328.17 56.6319 328.304 56.7652 328.437L88.2125 382.865C88.3458 382.999 88.2125 383.132 88.0793 383.266C87.946 383.399 87.8128 383.266 87.6795 383.132L56.3654 328.704C56.3654 328.57 56.2322 328.57 56.2322 328.57Z" fill="white" fill-opacity="0.16"/>
<path d="M54.7664 329.505C54.2334 328.571 54.4999 327.237 55.5659 326.703C56.4987 326.169 57.8312 326.436 58.3642 327.504C58.8972 328.437 58.6307 329.771 57.5647 330.305C56.6319 330.839 55.2994 330.572 54.7664 329.505Z" fill="white" fill-opacity="0.16"/>
<path d="M86.2137 383.933C86.7467 384.867 88.0792 385.267 89.012 384.733C89.9447 384.2 90.3445 382.866 89.8115 381.932C89.2785 380.998 87.9459 380.598 87.0132 381.131C85.9472 381.798 85.5474 382.999 86.2137 383.933Z" fill="white" fill-opacity="0.16"/>
<path d="M87.6794 382.999C87.6794 382.865 87.8127 382.732 87.9459 382.732L150.707 382.732C150.841 382.732 150.974 382.865 150.974 382.999C150.974 383.132 150.841 383.266 150.707 383.266L87.9459 383.266C87.8127 383.266 87.6794 383.132 87.6794 382.999Z" fill="white" fill-opacity="0.16"/>
<path d="M87.9459 385C86.8799 385 85.9471 384.066 85.9471 382.999C85.9471 381.798 86.8799 380.998 87.9459 380.998C89.0119 380.998 89.9447 381.932 89.9447 382.999C89.9447 384.066 89.1452 385 87.9459 385Z" fill="white" fill-opacity="0.16"/>
<path d="M150.707 385C151.773 385 152.706 384.066 152.706 382.999C152.706 381.798 151.773 380.998 150.707 380.998C149.641 380.998 148.709 381.932 148.709 382.999C148.709 384.066 149.508 385 150.707 385Z" fill="white" fill-opacity="0.16"/>
<path d="M150.441 382.999L150.441 382.865L181.755 328.437C181.888 328.304 182.022 328.304 182.155 328.304C182.288 328.437 182.288 328.571 182.288 328.704L150.974 383.132C150.841 383.266 150.707 383.266 150.574 383.266C150.441 383.132 150.441 382.999 150.441 382.999Z" fill="white" fill-opacity="0.16"/>
<path d="M152.44 383.933C151.907 384.867 150.574 385.267 149.641 384.733C148.709 384.2 148.309 382.866 148.842 381.932C149.375 380.998 150.707 380.598 151.64 381.131C152.706 381.665 153.106 382.999 152.44 383.933Z" fill="white" fill-opacity="0.16"/>
<path d="M183.887 329.505C184.42 328.571 184.153 327.237 183.087 326.703C182.155 326.169 180.822 326.436 180.289 327.504C179.756 328.437 180.023 329.771 181.089 330.305C182.021 330.839 183.354 330.572 183.887 329.505Z" fill="white" fill-opacity="0.16"/>
<path d="M150.441 274.142C150.441 274.009 150.441 274.009 150.574 273.875C150.707 273.742 150.841 273.875 150.974 274.009L182.288 328.437C182.421 328.571 182.288 328.704 182.155 328.837C182.022 328.971 181.888 328.837 181.755 328.704L150.441 274.276L150.441 274.142Z" fill="white" fill-opacity="0.16"/>
<path d="M183.887 327.504C184.42 328.437 184.153 329.771 183.087 330.305C182.155 330.839 180.822 330.572 180.289 329.505C179.756 328.571 180.023 327.237 181.089 326.703C182.021 326.169 183.354 326.57 183.887 327.504Z" fill="white" fill-opacity="0.16"/>
<path d="M152.44 273.075C151.907 272.141 150.574 271.741 149.641 272.275C148.709 272.808 148.309 274.142 148.842 275.076C149.375 276.01 150.707 276.41 151.64 275.877C152.706 275.343 153.106 274.142 152.44 273.075Z" fill="white" fill-opacity="0.16"/>
<path d="M0 219.981L56.6319 219.981C56.7651 219.981 56.8984 219.848 56.8984 219.714C56.8984 219.581 56.7651 219.447 56.6319 219.447L-6.36327e-09 219.447L0 219.981Z" fill="white" fill-opacity="0.16"/>
<path d="M56.6318 221.715C57.8311 221.715 58.6306 220.782 58.6306 219.714C58.6306 218.514 57.6978 217.713 56.6318 217.713C55.5658 217.713 54.6331 218.647 54.6331 219.714C54.4998 220.915 55.4326 221.715 56.6318 221.715Z" fill="white" fill-opacity="0.16"/>
<path d="M56.2321 219.714L56.2321 219.581L87.5461 165.152C87.6794 165.019 87.8126 165.019 87.9459 165.019C88.0791 165.152 88.0791 165.286 88.0791 165.419L56.7651 219.848C56.6318 219.981 56.4986 219.981 56.3653 219.981C56.3653 219.848 56.2321 219.848 56.2321 219.714Z" fill="white" fill-opacity="0.16"/>
<path d="M58.3641 220.781C57.8311 221.715 56.4986 222.115 55.5658 221.582C54.6331 221.048 54.2333 219.714 54.7663 218.78C55.2993 217.847 56.6318 217.446 57.5646 217.98C58.6306 218.514 58.8971 219.714 58.3641 220.781Z" fill="white" fill-opacity="0.16"/>
<path d="M89.6783 166.353C90.2113 165.419 89.9448 164.085 88.8787 163.552C87.946 163.018 86.6135 163.285 86.0805 164.352C85.5475 165.286 85.814 166.62 86.88 167.154C87.946 167.687 89.1453 167.287 89.6783 166.353Z" fill="white" fill-opacity="0.16"/>
<path d="M0 219.981L56.6319 219.981C56.7651 219.981 56.8984 219.848 56.8984 219.714C56.8984 219.581 56.7651 219.447 56.6319 219.447L-6.36327e-09 219.447L0 219.981Z" fill="white" fill-opacity="0.16"/>
<path d="M56.6318 221.715C57.8311 221.715 58.6306 220.782 58.6306 219.714C58.6306 218.647 57.6978 217.713 56.6318 217.713C55.5658 217.713 54.6331 218.647 54.6331 219.714C54.4998 220.782 55.4326 221.715 56.6318 221.715Z" fill="white" fill-opacity="0.16"/>
<path d="M0 328.837L56.6319 328.837C56.7651 328.837 56.8984 328.704 56.8984 328.571C56.8984 328.437 56.7651 328.304 56.6319 328.304L-6.36327e-09 328.304L0 328.837Z" fill="white" fill-opacity="0.16"/>
<path d="M56.6318 330.572C57.8311 330.572 58.6306 329.638 58.6306 328.571C58.6306 327.504 57.6978 326.57 56.6318 326.57C55.5658 326.57 54.6331 327.504 54.6331 328.571C54.4998 329.638 55.4326 330.572 56.6318 330.572Z" fill="white" fill-opacity="0.16"/>
<path d="M56.2321 328.571L56.2321 328.437L87.5461 274.009C87.6794 273.876 87.8126 273.876 87.9459 273.876C88.0791 274.009 88.0791 274.142 88.0791 274.276L56.7651 328.704C56.6318 328.837 56.4986 328.837 56.3653 328.837C56.3653 328.704 56.2321 328.571 56.2321 328.571Z" fill="white" fill-opacity="0.16"/>
<path d="M58.3641 329.505C57.8311 330.438 56.4986 330.839 55.5658 330.305C54.6331 329.771 54.2333 328.437 54.7663 327.503C55.2993 326.57 56.6318 326.169 57.5646 326.703C58.6306 327.37 58.8971 328.571 58.3641 329.505Z" fill="white" fill-opacity="0.16"/>
<path d="M89.6783 275.209C90.2113 274.276 89.9448 272.942 88.8787 272.408C87.946 271.874 86.6135 272.141 86.0805 273.208C85.5475 274.142 85.814 275.476 86.88 276.01C87.946 276.41 89.1453 276.143 89.6783 275.209Z" fill="white" fill-opacity="0.16"/>
<path d="M56.2321 219.714C56.2321 219.581 56.2321 219.581 56.3653 219.447C56.4986 219.314 56.6318 219.447 56.7651 219.581L88.2124 274.009C88.3456 274.142 88.2124 274.276 88.0791 274.409C87.9459 274.543 87.8126 274.409 87.6794 274.276L56.3653 219.847L56.2321 219.714Z" fill="white" fill-opacity="0.16"/>
<path d="M89.6783 273.075C90.2113 274.009 89.9448 275.343 88.8787 275.877C87.946 276.41 86.6135 276.144 86.0805 275.076C85.5475 274.143 85.814 272.808 86.88 272.275C87.946 271.741 89.1453 272.141 89.6783 273.075Z" fill="white" fill-opacity="0.16"/>
<path d="M58.3641 218.647C57.8311 217.713 56.4986 217.313 55.5658 217.847C54.6331 218.38 54.2333 219.714 54.7663 220.648C55.2993 221.582 56.6318 221.982 57.5646 221.448C58.6306 220.915 58.8971 219.714 58.3641 218.647Z" fill="white" fill-opacity="0.16"/>
</g>
<defs>
<clipPath id="clip0_72_933">
<rect width="385" height="434" fill="white" transform="translate(0 385) rotate(-90)"/>
</clipPath>
</defs>
</svg>
